<svg xmlns="http://www.w3.org/2000/svg" width="342.474" height="88.953" viewBox="0 0 342.474 88.953">
  <g id="quant_data" data-name="quant data" transform="translate(0.873 0.887)">
    <g id="Layer_2" data-name="Layer 2" transform="translate(-0.873 -0.887)">
      <g id="Layer_1" data-name="Layer 1" transform="translate(0)">
        <path id="Path_3450" data-name="Path 3450" d="M84.314,88.295H66.482v-3.14H84.071a14.412,14.412,0,0,0,8.679-23.524l-.045-.051a17.353,17.353,0,0,0-13.8-6.746,17.666,17.666,0,0,0-4.41.562l-1.206.325-.568-1.155A16.593,16.593,0,0,0,57.65,45.191,16.823,16.823,0,0,0,41.318,58.268L41.025,59.6l-1.359-.1c-.377,0-.7-.045-.989-.045a12.853,12.853,0,0,0,0,25.707H53.355v3.14H38.676a15.993,15.993,0,0,1-.1-31.987,19.866,19.866,0,0,1,36.345-4.257,20.73,20.73,0,0,1,3.976-.383A20.486,20.486,0,0,1,95.138,59.6a17.5,17.5,0,0,1,3.9,8.3,18.049,18.049,0,0,1,.262,3.025,17.524,17.524,0,0,1-14.868,17.32Z" transform="translate(-7.632 -14.63)" fill="#36a4dd"/>
        <path id="Path_3451" data-name="Path 3451" d="M97.113,52.606c-.243-.325-.5-.638-.759-.957a23.231,23.231,0,0,0-3.319-3.44,14.417,14.417,0,0,0-2.476-4.174l-.045-.051a17.365,17.365,0,0,0-13.785-6.746,17.614,17.614,0,0,0-4.4.562l-1.276.325-.562-1.155a16.638,16.638,0,0,0-15.01-9.4,16.829,16.829,0,0,0-16.332,13.1l-.294,1.353-1.359-.1c-.377,0-.689-.038-.989-.038A12.86,12.86,0,0,0,23.669,54.093a18.119,18.119,0,0,0-2.712,4.353,15.706,15.706,0,0,1-.447-3.74,16.012,16.012,0,0,1,15.9-15.987,19.868,19.868,0,0,1,36.345-4.231,20.786,20.786,0,0,1,3.976-.389,20.512,20.512,0,0,1,16.242,7.926,17.487,17.487,0,0,1,3.893,8.3,17.289,17.289,0,0,1,.249,2.285Z" transform="translate(-6.864 -8.273)" fill="#36a4dd"/>
        <path id="Path_3452" data-name="Path 3452" d="M69.584,119.761h-2.5V109.62H63.63v10.141h-2.5a.485.485,0,0,0-.415.728l4.225,7.32a.485.485,0,0,0,.836,0L70,120.489a.485.485,0,0,0-.415-.728Z" transform="translate(-21.386 -39.095)" fill="#36a4dd"/>
        <path id="Path_3453" data-name="Path 3453" d="M87.148,93.934h2.5v10.141H93.1V93.934h2.5a.485.485,0,0,0,.421-.728l-4.231-7.346a.479.479,0,0,0-.836,0l-4.225,7.346a.485.485,0,0,0,.415.728Z" transform="translate(-30.8 -30.41)" fill="#36a4dd"/>
        <g id="Group_2088" data-name="Group 2088" transform="translate(0 32.467)">
          <g id="Group_2087" data-name="Group 2087" opacity="0">
            <g id="Group_2086" data-name="Group 2086">
              <ellipse id="Ellipse_25" data-name="Ellipse 25" cx="17.493" cy="17.767" rx="17.493" ry="17.767" transform="translate(0 34.968) rotate(-88.13)" fill="#afafaf"/>
            </g>
          </g>
        </g>
        <g id="Group_2091" data-name="Group 2091" transform="translate(33.611)" opacity="0">
          <g id="Group_2090" data-name="Group 2090">
            <g id="Group_2089" data-name="Group 2089">
              <ellipse id="Ellipse_26" data-name="Ellipse 26" cx="17.493" cy="17.767" rx="17.493" ry="17.767" transform="translate(0 34.968) rotate(-88.13)" fill="#afafaf"/>
            </g>
          </g>
        </g>
        <g id="Group_2094" data-name="Group 2094" transform="translate(66.465 49.959)">
          <g id="Group_2093" data-name="Group 2093" transform="translate(0 0)">
            <g id="Group_2092" data-name="Group 2092" opacity="0">
              <ellipse id="Ellipse_27" data-name="Ellipse 27" cx="17.493" cy="17.767" rx="17.493" ry="17.767" transform="translate(0 34.968) rotate(-88.13)" fill="#afafaf"/>
            </g>
          </g>
        </g>
        <text id="Quant_Data-2" data-name="Quant Data" transform="translate(110.474 68.509)" fill="#fff" font-size="43" font-family="SegoeUI-Bold, Segoe UI" font-weight="700"><tspan x="0" y="0">Quant </tspan><tspan y="0" fill="#37a3dc">Data</tspan></text>
      </g>
    </g>
  </g>
</svg>
