<svg xmlns="http://www.w3.org/2000/svg" xmlns:xlink="http://www.w3.org/1999/xlink" width="262" height="262" viewBox="0 0 262 262">
  <defs>
    <linearGradient id="linear-gradient" x1="0.5" x2="0.5" y2="1" gradientUnits="objectBoundingBox">
      <stop offset="0" stop-color="#1085d1"/>
      <stop offset="1" stop-color="#0d38ba"/>
    </linearGradient>
  </defs>
  <g id="Group_2102" data-name="Group 2102" transform="translate(-1379 -604)">
    <circle id="Ellipse_35" data-name="Ellipse 35" cx="131" cy="131" r="131" transform="translate(1379 604)" fill="url(#linear-gradient)"/>
    <path id="gift" d="M102.6,46.336H59.575V33.1H102.6a3.272,3.272,0,0,1,2.327.93,3.132,3.132,0,0,1,.983,2.38v6.619a3.356,3.356,0,0,1-3.31,3.31ZM66.194,26.478H33.1A12.762,12.762,0,0,1,23.736,22.6a12.741,12.741,0,0,1-3.878-9.361,12.771,12.771,0,0,1,3.878-9.361A12.75,12.75,0,0,1,33.1,0q5.584,0,8.326,1.4a6.343,6.343,0,0,1,3.466,4.136,33.834,33.834,0,0,1,.983,5.793,26.947,26.947,0,0,0,1.912,7.29,23.588,23.588,0,0,0,5.172,7.861v-4.5l.1-4.189.362-4.136.674-3.672L55.18,6.569l1.656-2.636L59.16,1.759l3.1-1.242L66.194,0a12.762,12.762,0,0,1,9.361,3.878,12.741,12.741,0,0,1,3.878,9.361A12.771,12.771,0,0,1,75.556,22.6,12.75,12.75,0,0,1,66.194,26.478ZM33.044,6.619a6.529,6.529,0,0,0-6.566,6.566,6.511,6.511,0,0,0,1.912,4.707,6.249,6.249,0,0,0,4.654,1.965,6.422,6.422,0,0,0,4.707-1.965,6.422,6.422,0,0,0,1.965-4.707,6.249,6.249,0,0,0-1.965-4.654A6.511,6.511,0,0,0,33.044,6.619Zm33.1,0a6.529,6.529,0,0,0-6.566,6.566,6.422,6.422,0,0,0,1.965,4.707,6.494,6.494,0,0,0,9.308,0,6.422,6.422,0,0,0,1.965-4.707,6.249,6.249,0,0,0-1.965-4.654A6.511,6.511,0,0,0,66.141,6.619ZM46.336,46.336H3.31a3.181,3.181,0,0,1-2.327-.983A3.181,3.181,0,0,1,0,43.026V36.407a3.138,3.138,0,0,1,.983-2.38A3.256,3.256,0,0,1,3.31,33.1H46.336Zm0,59.575h-33.1a6.316,6.316,0,0,1-4.707-1.965,6.433,6.433,0,0,1-1.912-4.654V52.956H46.336ZM99.292,52.956V99.292a6.449,6.449,0,0,1-1.912,4.654,6.31,6.31,0,0,1-4.707,1.965h-33.1V52.956Z" transform="translate(1457 682)" fill="#fff"/>
  </g>
</svg>
