<svg xmlns="http://www.w3.org/2000/svg" width="94.906" height="69.584" viewBox="0 0 94.906 69.584">
  <g id="arrows-exchange-alt" transform="translate(1.588 1.5)">
    <path id="Path_3454" data-name="Path 3454" d="M68.992,36.937a5.728,5.728,0,0,0,3.039-10.584L56.64,10.957a5.729,5.729,0,0,0-8.1,8.106l6.419,6.415H11.716a5.728,5.728,0,1,0,0,11.455H68.992Z" transform="translate(17.006 -9.281)" fill="none" stroke="#fff" stroke-width="3"/>
    <path id="Path_3455" data-name="Path 3455" d="M17.742,19.476A5.728,5.728,0,0,0,14.7,30.06l15.4,15.4a5.729,5.729,0,1,0,8.1-8.106l-6.419-6.415H75.021a5.728,5.728,0,1,0,0-11.455H17.746Z" transform="translate(-12.01 19.452)" fill="none" stroke="#fff" stroke-width="3"/>
  </g>
</svg>
