<svg xmlns="http://www.w3.org/2000/svg" width="17.022" height="19.851" viewBox="0 0 17.022 19.851">
  <g id="ai-status-failed" transform="translate(-6.739 -2.25)">
    <path id="Path_509" data-name="Path 509" d="M12.375,27h7.09v1.418h-7.09Z" transform="translate(-2.084 -9.153)" fill="#fe5b61"/>
    <path id="Path_510" data-name="Path 510" d="M14.625,31.5h4.254v1.418H14.625Z" transform="translate(-2.916 -10.817)" fill="#fe5b61"/>
    <path id="Path_511" data-name="Path 511" d="M10.16,13.692a5.094,5.094,0,0,1-2-4.353,5.679,5.679,0,0,1,5.672-5.672V2.25a7.1,7.1,0,0,0-7.09,7.09,6.509,6.509,0,0,0,2.453,5.4c.717.663,1.091,1.039,1.091,1.69h1.418A3.616,3.616,0,0,0,10.16,13.692Z" transform="translate(0 0)" fill="#fe5b61"/>
    <path id="Path_512" data-name="Path 512" d="M24.778,15.75a5.161,5.161,0,0,1-1.859,2.937,3.611,3.611,0,0,0-1.544,2.734h1.418c0-.652.373-1.028,1.088-1.691a6.482,6.482,0,0,0,2.343-3.98Z" transform="translate(-5.413 -4.993)" fill="#fe5b61"/>
    <path id="Path_513" data-name="Path 513" d="M29.59,3.249l-1-1L26.045,4.8,23.5,2.25l-1,1,2.545,2.545L22.5,8.34l1,1,2.545-2.545L28.59,9.34l1-1L27.044,5.795Z" transform="translate(-5.829 0)" fill="#fe5b61"/>
  </g>
</svg>
