<svg xmlns="http://www.w3.org/2000/svg" width="17.022" height="19.851" viewBox="0 0 17.022 19.851">
  <g id="Group_1941" data-name="Group 1941" transform="translate(-6.739 -2.25)">
    <path id="Path_504" data-name="Path 504" d="M12.375,27H22.3v1.418H12.375Z" transform="translate(-3.502 -9.153)" fill="#fff"/>
    <path id="Path_505" data-name="Path 505" d="M14.625,31.5h4.254v1.418H14.625Z" transform="translate(-2.916 -10.817)" fill="#fff"/>
    <path id="Path_506" data-name="Path 506" d="M10.16,13.692a5.094,5.094,0,0,1-2-4.353,5.679,5.679,0,0,1,5.672-5.672V2.25a7.1,7.1,0,0,0-7.09,7.09,6.509,6.509,0,0,0,2.453,5.4c.717.663,1.091,1.039,1.091,1.69h1.418A3.616,3.616,0,0,0,10.16,13.692Z" fill="#fff"/>
    <path id="Path_507" data-name="Path 507" d="M21.545,7.631,19,5.086l-1,1L21.545,9.63l6.381-6.381-1-1Z" transform="translate(-4.165)" fill="#fff"/>
    <path id="Path_508" data-name="Path 508" d="M24.778,15.75a5.161,5.161,0,0,1-1.859,2.937,3.611,3.611,0,0,0-1.544,2.734h1.418c0-.652.373-1.028,1.088-1.691a6.482,6.482,0,0,0,2.343-3.98Z" transform="translate(-5.413 -4.993)" fill="#fff"/>
  </g>
</svg>
