<svg xmlns="http://www.w3.org/2000/svg" width="31.5" height="31.501" viewBox="0 0 31.5 31.501">
  <g id="copy-outline" transform="translate(-2.25 -2.249)">
    <path id="Path_3460" data-name="Path 3460" d="M13.008,9H28.617a4.008,4.008,0,0,1,4.008,4.008V28.617a4.008,4.008,0,0,1-4.008,4.008H13.008A4.008,4.008,0,0,1,9,28.617V13.008A4.008,4.008,0,0,1,13.008,9Z" fill="none" stroke="#fff" stroke-linejoin="round" stroke-width="2.25"/>
    <path id="Path_3461" data-name="Path 3461" d="M26.965,9,27,7.312a3.949,3.949,0,0,0-3.938-3.938H7.875a4.513,4.513,0,0,0-4.5,4.5V23.062A3.949,3.949,0,0,0,7.313,27H9" fill="none" stroke="#fff" stroke-linecap="round" stroke-linejoin="round" stroke-width="2.25"/>
  </g>
</svg>
