<svg xmlns="http://www.w3.org/2000/svg" xmlns:xlink="http://www.w3.org/1999/xlink" width="886.454" height="1418.242" viewBox="0 0 886.454 1418.242">
  <defs>
    <linearGradient id="linear-gradient" x1="-0.792" y1="0.5" x2="1" y2="0.5" gradientUnits="objectBoundingBox">
      <stop offset="0.004" stop-color="#5e5c64"/>
      <stop offset="0.269" stop-color="#59575e"/>
      <stop offset="0.588" stop-color="#4c4b50"/>
      <stop offset="0.936" stop-color="#373637"/>
      <stop offset="0.993" stop-color="#333"/>
    </linearGradient>
    <linearGradient id="linear-gradient-2" x1="-0.787" y1="0.5" x2="1" y2="0.5" xlink:href="#linear-gradient"/>
    <linearGradient id="linear-gradient-3" x1="-0.782" y1="0.5" x2="1" y2="0.5" xlink:href="#linear-gradient"/>
    <linearGradient id="linear-gradient-4" x1="-0.777" y1="0.5" x2="1" y2="0.5" xlink:href="#linear-gradient"/>
    <linearGradient id="linear-gradient-5" x1="-0.771" y1="0.5" x2="1" y2="0.5" xlink:href="#linear-gradient"/>
    <linearGradient id="linear-gradient-6" x1="-0.766" y1="0.5" x2="1" y2="0.5" xlink:href="#linear-gradient"/>
    <linearGradient id="linear-gradient-7" x1="-0.76" y1="0.5" x2="1" y2="0.5" xlink:href="#linear-gradient"/>
    <linearGradient id="linear-gradient-8" x1="-0.753" y1="0.5" x2="1" y2="0.5" xlink:href="#linear-gradient"/>
    <linearGradient id="linear-gradient-9" x1="-0.746" y1="0.5" x2="1" y2="0.5" xlink:href="#linear-gradient"/>
    <linearGradient id="linear-gradient-10" x1="-0.739" y1="0.5" x2="1" y2="0.5" xlink:href="#linear-gradient"/>
    <linearGradient id="linear-gradient-11" x1="-0.732" y1="0.5" x2="1" y2="0.5" xlink:href="#linear-gradient"/>
    <linearGradient id="linear-gradient-12" x1="-0.724" y1="0.5" x2="1" y2="0.5" xlink:href="#linear-gradient"/>
    <linearGradient id="linear-gradient-13" x1="-0.715" y1="0.5" x2="1" y2="0.5" xlink:href="#linear-gradient"/>
    <linearGradient id="linear-gradient-14" x1="-0.706" y1="0.5" x2="1" y2="0.5" xlink:href="#linear-gradient"/>
    <linearGradient id="linear-gradient-15" x1="-0.697" y1="0.5" x2="1" y2="0.5" xlink:href="#linear-gradient"/>
    <linearGradient id="linear-gradient-16" x1="-0.686" y1="0.5" x2="1" y2="0.5" xlink:href="#linear-gradient"/>
    <linearGradient id="linear-gradient-17" x1="-0.675" y1="0.5" x2="1" y2="0.5" xlink:href="#linear-gradient"/>
    <linearGradient id="linear-gradient-18" x1="-0.663" y1="0.5" x2="1" y2="0.5" xlink:href="#linear-gradient"/>
    <linearGradient id="linear-gradient-19" x1="-0.651" y1="0.5" x2="1" y2="0.5" xlink:href="#linear-gradient"/>
    <linearGradient id="linear-gradient-20" x1="-0.637" y1="0.5" x2="1" y2="0.5" xlink:href="#linear-gradient"/>
    <linearGradient id="linear-gradient-21" x1="-0.622" y1="0.5" x2="1" y2="0.5" xlink:href="#linear-gradient"/>
    <linearGradient id="linear-gradient-22" x1="-0.606" y1="0.5" x2="1" y2="0.5" xlink:href="#linear-gradient"/>
    <linearGradient id="linear-gradient-23" x1="-0.589" y1="0.5" x2="1" y2="0.5" xlink:href="#linear-gradient"/>
    <linearGradient id="linear-gradient-24" x1="-0.57" y1="0.5" x2="1" y2="0.5" xlink:href="#linear-gradient"/>
    <linearGradient id="linear-gradient-25" x1="-0.549" y1="0.5" x2="1" y2="0.5" xlink:href="#linear-gradient"/>
    <linearGradient id="linear-gradient-26" x1="-0.526" y1="0.5" x2="1" y2="0.5" xlink:href="#linear-gradient"/>
    <linearGradient id="linear-gradient-27" x1="-0.5" y1="0.5" x2="1" y2="0.5" xlink:href="#linear-gradient"/>
    <linearGradient id="linear-gradient-28" x1="-0.472" y1="0.5" x2="1" y2="0.5" xlink:href="#linear-gradient"/>
    <linearGradient id="linear-gradient-29" x1="-0.44" y1="0.5" x2="1" y2="0.5" xlink:href="#linear-gradient"/>
    <linearGradient id="linear-gradient-30" x1="-0.404" y1="0.5" x2="1" y2="0.5" xlink:href="#linear-gradient"/>
  </defs>
  <g id="Group_1943" data-name="Group 1943" transform="translate(300.184 -8104.773)">
    <g id="Group_1942" data-name="Group 1942">
      <path id="Path_316" data-name="Path 316" d="M4175.653,1381.747A790.841,790.841,0,0,0,4005.442,1129.5a802.1,802.1,0,0,0-71.617-63.526h-5.417a798.816,798.816,0,0,1,74.685,65.872A790.111,790.111,0,0,1,3443.834,2480.9a802.938,802.938,0,0,1-92.22-5.294v3.345a806.333,806.333,0,0,0,92.22,5.271,793.912,793.912,0,0,0,731.82-1102.471Z" transform="translate(-3651.798 7038.797)" fill="url(#linear-gradient)"/>
      <path id="Path_317" data-name="Path 317" d="M4157.313,1389.488a771.052,771.052,0,0,0-165.945-245.924,779.562,779.562,0,0,0-90.479-77.588h-5.646a775.882,775.882,0,0,1,93.775,79.936,770.229,770.229,0,0,1-545.185,1315.1,782.615,782.615,0,0,1-92.22-5.435v3.343a785.858,785.858,0,0,0,92.22,5.412,774.013,774.013,0,0,0,713.48-1074.842Z" transform="translate(-3651.798 7038.797)" fill="url(#linear-gradient-2)"/>
      <path id="Path_318" data-name="Path 318" d="M4138.974,1397.229a758.3,758.3,0,0,0-272.634-331.254h-5.967a754.812,754.812,0,0,1,275.539,332.548,750.512,750.512,0,0,1-692.078,1042.6,761.887,761.887,0,0,1-92.22-5.576v3.345a765.345,765.345,0,0,0,92.22,5.552,754.117,754.117,0,0,0,695.14-1047.213Z" transform="translate(-3651.798 7038.797)" fill="url(#linear-gradient-3)"/>
      <path id="Path_319" data-name="Path 319" d="M4120.634,1404.971a737.376,737.376,0,0,0-291.007-338.995h-6.288a730.56,730.56,0,0,1-379.505,1355.258,741.326,741.326,0,0,1-92.22-5.724v3.35a744.906,744.906,0,0,0,92.22,5.694,734.223,734.223,0,0,0,676.8-1019.583Z" transform="translate(-3651.798 7038.797)" fill="url(#linear-gradient-4)"/>
      <path id="Path_320" data-name="Path 320" d="M4102.295,1412.712a717.036,717.036,0,0,0-312.055-346.736h-6.826a710.683,710.683,0,0,1-339.58,1335.37,720.575,720.575,0,0,1-92.22-5.9v3.35a724.218,724.218,0,0,0,92.22,5.869,714.33,714.33,0,0,0,658.461-991.956Z" transform="translate(-3651.798 7038.797)" fill="url(#linear-gradient-5)"/>
      <path id="Path_321" data-name="Path 321" d="M3935.071,1199.814a692.516,692.516,0,0,0-187.966-133.838h-7.725a690.786,690.786,0,0,1-295.547,1315.483,700.381,700.381,0,0,1-92.22-6.068v3.348a703.626,703.626,0,0,0,92.22,6.042,693.786,693.786,0,0,0,491.237-1184.966Z" transform="translate(-3651.798 7038.797)" fill="url(#linear-gradient-6)"/>
      <path id="Path_322" data-name="Path 322" d="M3921,1213.877a672.571,672.571,0,0,0-214.5-144.5q-4.095-1.732-8.21-3.4h-8.935q7.956,3.128,15.85,6.462a670.93,670.93,0,0,1-261.373,1289.134,679.74,679.74,0,0,1-92.22-6.243v3.35a683.271,683.271,0,0,0,92.22,6.213A673.909,673.909,0,0,0,3921,1213.877Z" transform="translate(-3651.798 7038.797)" fill="url(#linear-gradient-7)"/>
      <path id="Path_323" data-name="Path 323" d="M3906.923,1227.939a652.775,652.775,0,0,0-208.17-140.234q-29.2-12.34-59.237-21.729h-11.4a651.073,651.073,0,0,1-184.282,1275.709,659.22,659.22,0,0,1-92.22-6.447v3.355a662.522,662.522,0,0,0,92.22,6.412,654.031,654.031,0,0,0,463.089-1117.066Z" transform="translate(-3651.798 7038.797)" fill="url(#linear-gradient-8)"/>
      <path id="Path_324" data-name="Path 324" d="M3892.848,1242a633.629,633.629,0,0,0-336.991-176.025h-20.963a631.167,631.167,0,0,1-91.06,1255.821,638.754,638.754,0,0,1-92.22-6.655v3.356a642.342,642.342,0,0,0,92.22,6.618A634.154,634.154,0,0,0,3892.848,1242Z" transform="translate(-3651.798 7038.797)" fill="url(#linear-gradient-9)"/>
      <path id="Path_325" data-name="Path 325" d="M4010.595,1447.4a614.67,614.67,0,0,0-566.761-375.363,621.733,621.733,0,0,0-92.22,6.828v3.361a618.138,618.138,0,0,1,92.22-6.867,611.266,611.266,0,1,1,0,1222.531,618.154,618.154,0,0,1-92.22-6.867v3.361a621.75,621.75,0,0,0,92.22,6.828A614.847,614.847,0,0,0,4010.595,1447.4Z" transform="translate(-3651.798 7042.811)" fill="url(#linear-gradient-10)"/>
      <path id="Path_326" data-name="Path 326" d="M3992.254,1447.226a594.786,594.786,0,0,0-548.42-363.215,601.19,601.19,0,0,0-92.22,7.092v3.365a597.6,597.6,0,0,1,92.22-7.135,591.379,591.379,0,1,1,0,1182.758,597.6,597.6,0,0,1-92.22-7.137v3.365a601.159,601.159,0,0,0,92.22,7.092,594.95,594.95,0,0,0,548.42-826.184Z" transform="translate(-3651.798 7050.729)" fill="url(#linear-gradient-11)"/>
      <g id="Group_1941" data-name="Group 1941">
        <path id="Path_327" data-name="Path 327" d="M3850.626,1264.338c-108.658-108.567-253.127-168.358-406.792-168.358a583.167,583.167,0,0,0-92.22,7.343v3.363a579.788,579.788,0,0,1,92.22-7.386c152.778,0,296.411,59.446,404.443,167.386S4015.8,1518.141,4015.8,1670.792s-59.494,296.165-167.524,404.105-251.665,167.386-404.443,167.386a579.774,579.774,0,0,1-92.22-7.386v3.363a583.167,583.167,0,0,0,92.22,7.342c153.665,0,298.134-59.79,406.792-168.358s168.5-252.915,168.5-406.453S3959.284,1372.905,3850.626,1264.338Z" transform="translate(-3651.798 7058.648)" fill="url(#linear-gradient-12)"/>
        <path id="Path_328" data-name="Path 328" d="M3836.551,1270.482c-104.9-104.812-244.367-162.533-392.717-162.533a562.888,562.888,0,0,0-92.22,7.6v3.365a559.4,559.4,0,0,1,92.22-7.643c147.462,0,286.1,57.377,390.367,161.561s161.7,242.7,161.7,390.043-57.424,285.858-161.7,390.043-242.9,161.561-390.367,161.561a559.372,559.372,0,0,1-92.22-7.644v3.363a562.728,562.728,0,0,0,92.22,7.6c148.35,0,287.819-57.721,392.717-162.533s162.669-244.165,162.669-392.391S3941.45,1375.293,3836.551,1270.482Z" transform="translate(-3651.798 7066.567)" fill="url(#linear-gradient-13)"/>
        <path id="Path_329" data-name="Path 329" d="M3822.477,1276.626c-101.14-101.055-235.611-156.709-378.643-156.709a542.462,542.462,0,0,0-92.22,7.858v3.375a538.864,538.864,0,0,1,92.22-7.911c142.145,0,275.782,55.307,376.293,155.735s155.867,233.954,155.867,375.981-55.355,275.553-155.867,375.981-234.148,155.735-376.293,155.735a539.048,539.048,0,0,1-92.22-7.909v3.373a542.474,542.474,0,0,0,92.22,7.856c143.032,0,277.5-55.653,378.643-156.707s156.84-235.415,156.84-378.329S3923.616,1377.682,3822.477,1276.626Z" transform="translate(-3651.798 7074.485)" fill="url(#linear-gradient-14)"/>
        <path id="Path_330" data-name="Path 330" d="M3808.4,1282.771c-97.38-97.3-226.854-150.885-364.569-150.885a521.872,521.872,0,0,0-92.22,8.2v3.378a518.536,518.536,0,0,1,92.22-8.253c136.828,0,265.467,53.238,362.219,149.911s150.036,225.2,150.036,361.917-53.285,265.246-150.036,361.917-225.392,149.911-362.219,149.911a518.536,518.536,0,0,1-92.22-8.253v3.378a522.01,522.01,0,0,0,92.22,8.2c137.715,0,267.188-53.585,364.569-150.883s151.009-226.665,151.009-364.266S3905.782,1380.069,3808.4,1282.771Z" transform="translate(-3651.798 7082.405)" fill="url(#linear-gradient-15)"/>
        <path id="Path_331" data-name="Path 331" d="M3794.329,1288.914c-93.621-93.542-218.1-145.059-350.5-145.059a501.486,501.486,0,0,0-92.22,8.541v3.378a497.958,497.958,0,0,1,92.22-8.6c131.511,0,255.151,51.171,348.144,144.087s144.207,216.452,144.207,347.854-51.213,254.94-144.207,347.854-216.633,144.087-348.144,144.087a497.947,497.947,0,0,1-92.22-8.6v3.378a501.475,501.475,0,0,0,92.22,8.541c132.4,0,256.875-51.517,350.5-145.059s145.179-217.913,145.179-350.2S3887.949,1382.457,3794.329,1288.914Z" transform="translate(-3651.798 7090.324)" fill="url(#linear-gradient-16)"/>
        <path id="Path_332" data-name="Path 332" d="M3780.253,1295.058c-89.86-89.787-209.337-139.234-336.419-139.234a481.127,481.127,0,0,0-92.22,8.883v3.378a477.746,477.746,0,0,1,92.22-8.941c126.195,0,244.836,49.1,334.07,138.261s138.376,207.7,138.376,333.792-49.143,244.633-138.376,333.792-207.875,138.262-334.07,138.262a477.765,477.765,0,0,1-92.22-8.941v3.378a481.127,481.127,0,0,0,92.22,8.883c127.082,0,246.559-49.448,336.419-139.234s139.35-209.163,139.35-336.14S3870.115,1384.845,3780.253,1295.058Z" transform="translate(-3651.798 7098.242)" fill="url(#linear-gradient-17)"/>
        <path id="Path_333" data-name="Path 333" d="M3766.179,1301.2c-86.1-86.03-200.58-133.408-322.345-133.408a460.665,460.665,0,0,0-92.22,9.293v3.395a457.247,457.247,0,0,1,92.22-9.368c120.878,0,234.522,47.034,320,132.436s132.547,198.952,132.547,319.73-47.074,234.326-132.547,319.73-199.118,132.436-320,132.436a457.229,457.229,0,0,1-92.22-9.368v3.395a460.54,460.54,0,0,0,92.22,9.293c121.765,0,236.244-47.378,322.345-133.408S3899.7,1744.944,3899.7,1623.279,3852.281,1387.231,3766.179,1301.2Z" transform="translate(-3651.798 7106.161)" fill="url(#linear-gradient-18)"/>
        <path id="Path_334" data-name="Path 334" d="M3752.105,1307.344c-82.343-82.273-191.822-127.582-308.271-127.582a440.311,440.311,0,0,0-92.22,9.736v3.395a436.842,436.842,0,0,1,92.22-9.81c115.563,0,224.208,44.965,305.922,126.61s126.716,190.2,126.716,305.668-45,224.021-126.716,305.666-190.36,126.612-305.922,126.612a436.842,436.842,0,0,1-92.22-9.81v3.393a440.084,440.084,0,0,0,92.22,9.739c116.45,0,225.929-45.311,308.271-127.585s127.69-191.661,127.69-308.014S3834.447,1389.618,3752.105,1307.344Z" transform="translate(-3651.798 7114.08)" fill="url(#linear-gradient-19)"/>
        <path id="Path_335" data-name="Path 335" d="M3738.03,1313.49c-78.583-78.518-183.063-121.76-294.2-121.76a419.854,419.854,0,0,0-92.22,10.193v3.414a416.412,416.412,0,0,1,92.22-10.287c110.245,0,213.892,42.9,291.847,120.788s120.888,181.45,120.888,291.6-42.932,213.714-120.888,291.6-181.6,120.786-291.847,120.786a416.411,416.411,0,0,1-92.22-10.285v3.415a419.861,419.861,0,0,0,92.22,10.192c111.133,0,215.613-43.242,294.2-121.76s121.861-182.911,121.861-293.952S3816.615,1392.006,3738.03,1313.49Z" transform="translate(-3651.798 7121.999)" fill="url(#linear-gradient-20)"/>
        <path id="Path_336" data-name="Path 336" d="M3723.956,1319.633c-74.822-74.761-174.305-115.934-280.122-115.934a399.411,399.411,0,0,0-92.22,10.749v3.413a396.017,396.017,0,0,1,92.22-10.842c104.928,0,203.577,40.827,277.772,114.962s115.058,172.7,115.058,277.542-40.861,203.407-115.058,277.542-172.845,114.962-277.772,114.962a396.03,396.03,0,0,1-92.22-10.842v3.413a399.4,399.4,0,0,0,92.22,10.749c105.817,0,205.3-41.173,280.122-115.934s116.031-174.161,116.031-279.889S3798.781,1394.395,3723.956,1319.633Z" transform="translate(-3651.798 7129.917)" fill="url(#linear-gradient-21)"/>
        <path id="Path_337" data-name="Path 337" d="M3709.882,1325.777a373.94,373.94,0,0,0-266.048-110.109,378.982,378.982,0,0,0-92.22,11.314v3.434a375.618,375.618,0,0,1,92.22-11.428,372.616,372.616,0,1,1,0,745.232,375.612,375.612,0,0,1-92.22-11.428v3.435a378.981,378.981,0,0,0,92.22,11.314,375.871,375.871,0,0,0,266.048-641.763Z" transform="translate(-3651.798 7137.836)" fill="url(#linear-gradient-22)"/>
        <path id="Path_338" data-name="Path 338" d="M3695.808,1331.92a354.17,354.17,0,0,0-251.975-104.283,358.6,358.6,0,0,0-92.22,12v3.557a352.492,352.492,0,0,1,92.22-12.234c194.657,0,353.022,158.232,353.022,352.728s-158.366,352.728-353.022,352.728a352.481,352.481,0,0,1-92.22-12.234v3.558a358.611,358.611,0,0,0,92.22,12,355.987,355.987,0,0,0,251.975-607.813Z" transform="translate(-3651.798 7145.756)" fill="url(#linear-gradient-23)"/>
        <path id="Path_339" data-name="Path 339" d="M3443.834,1239.6a335.84,335.84,0,0,0-92.22,12.841v3.464a332.451,332.451,0,0,1,92.22-12.984c183.682,0,333.118,149.311,333.118,332.84s-149.436,332.84-333.118,332.84a332.451,332.451,0,0,1-92.22-12.984v3.465a335.775,335.775,0,0,0,92.22,12.841c185.515,0,336.441-150.8,336.441-336.162S3629.348,1239.6,3443.834,1239.6Z" transform="translate(-3651.798 7153.673)" fill="url(#linear-gradient-24)"/>
        <path id="Path_340" data-name="Path 340" d="M3443.834,1251.574a315.742,315.742,0,0,0-92.22,13.705v3.466a312.359,312.359,0,0,1,92.22-13.85c172.707,0,313.213,140.388,313.213,312.952S3616.541,1880.8,3443.834,1880.8a312.36,312.36,0,0,1-92.22-13.851v3.466a315.742,315.742,0,0,0,92.22,13.705c174.538,0,316.537-141.881,316.537-316.274S3618.372,1251.574,3443.834,1251.574Z" transform="translate(-3651.798 7161.592)" fill="url(#linear-gradient-25)"/>
        <path id="Path_341" data-name="Path 341" d="M3443.834,1263.543a295.693,295.693,0,0,0-92.22,14.682v3.492a292.349,292.349,0,0,1,92.22-14.855c161.732,0,293.309,131.469,293.309,293.066s-131.577,293.066-293.309,293.066a292.343,292.343,0,0,1-92.22-14.855v3.493a295.707,295.707,0,0,0,92.22,14.682c163.565,0,296.632-132.958,296.632-296.386S3607.4,1263.543,3443.834,1263.543Z" transform="translate(-3651.798 7169.512)" fill="url(#linear-gradient-26)"/>
        <path id="Path_342" data-name="Path 342" d="M3443.834,1275.512a275.632,275.632,0,0,0-92.22,15.807v3.521a272.32,272.32,0,0,1,92.22-16.008c150.755,0,273.406,122.548,273.406,273.178s-122.65,273.178-273.406,273.178a272.326,272.326,0,0,1-92.22-16.008v3.521a275.681,275.681,0,0,0,92.22,15.807c152.588,0,276.729-124.036,276.729-276.5S3596.422,1275.512,3443.834,1275.512Z" transform="translate(-3651.798 7177.431)" fill="url(#linear-gradient-27)"/>
        <path id="Path_343" data-name="Path 343" d="M3443.834,1287.48a255.7,255.7,0,0,0-92.22,17.121v3.554a252.376,252.376,0,0,1,92.22-17.354c139.782,0,253.5,113.625,253.5,253.29s-113.719,253.29-253.5,253.29a252.406,252.406,0,0,1-92.22-17.352v3.552a255.707,255.707,0,0,0,92.22,17.12c141.613,0,256.825-115.113,256.825-256.61S3585.447,1287.48,3443.834,1287.48Z" transform="translate(-3651.798 7185.348)" fill="url(#linear-gradient-28)"/>
      </g>
    </g>
    <path id="Path_344" data-name="Path 344" d="M3443.834,1299.449a235.761,235.761,0,0,0-92.22,18.672v3.625a232.427,232.427,0,0,1,92.22-18.976c128.806,0,233.6,104.7,233.6,233.4s-104.792,233.4-233.6,233.4a232.452,232.452,0,0,1-92.22-18.974v3.624a235.8,235.8,0,0,0,92.22,18.671c130.638,0,236.92-106.194,236.92-236.724S3574.472,1299.449,3443.834,1299.449Z" transform="translate(-3651.798 7193.267)" fill="url(#linear-gradient-29)"/>
    <path id="Path_345" data-name="Path 345" d="M3443.834,1311.418a215.865,215.865,0,0,0-92.22,20.583v3.665a212.539,212.539,0,0,1,92.22-20.928c117.831,0,213.692,95.782,213.692,213.516s-95.862,213.516-213.692,213.516a212.539,212.539,0,0,1-92.22-20.928v3.666a215.869,215.869,0,0,0,92.22,20.582c119.663,0,217.016-97.273,217.016-216.836S3563.5,1311.418,3443.834,1311.418Z" transform="translate(-3651.798 7201.187)" fill="url(#linear-gradient-30)"/>
  </g>
</svg>
