<svg xmlns="http://www.w3.org/2000/svg" width="33.801" height="25.881" viewBox="0 0 33.801 25.881">
  <g id="link" transform="translate(-1.091 -5.619)">
    <path id="Path_3458" data-name="Path 3458" d="M32.906,7.605a6.75,6.75,0,0,0-9.563,0l1.6,1.6a4.511,4.511,0,1,1,6.379,6.379l-9,9a4.506,4.506,0,0,1-6.379-6.367l1.586-1.6-1.586-1.6-1.6,1.6a6.758,6.758,0,0,0,9.586,9.528l9-9a6.75,6.75,0,0,0-.022-9.54Z" fill="#fff"/>
    <path id="Path_3459" data-name="Path 3459" d="M4.714,27.922a4.5,4.5,0,0,1,0-6.379l9-9a4.5,4.5,0,0,1,6.379,0,4.433,4.433,0,0,1,1.282,3.207,4.5,4.5,0,0,1-1.316,3.206l-2.385,2.419,1.6,1.6,2.385-2.385a6.77,6.77,0,0,0-9.574-9.574l-9,9A6.7,6.7,0,0,0,7.875,31.5a6.829,6.829,0,0,0,4.815-1.98l-1.6-1.6a4.5,4.5,0,0,1-6.379,0Z" fill="#fff"/>
  </g>
</svg>
