<svg xmlns="http://www.w3.org/2000/svg" width="1092.558" height="1448.129" viewBox="0 0 1092.558 1448.129">
  <g id="Group_80" data-name="Group 80" transform="translate(-23.981 9.403) rotate(-1)" opacity="0.35" style="isolation: isolate">
    <path id="Path_38" data-name="Path 38" d="M4528.247,1949.735a2.546,2.546,0,1,0,3.6-.241A2.546,2.546,0,0,0,4528.247,1949.735Z" transform="translate(-4458.013 -513.797)" fill="#565556"/>
    <path id="Path_39" data-name="Path 39" d="M4572.249,1910.438a3.821,3.821,0,1,0,5.392-.359A3.817,3.817,0,0,0,4572.249,1910.438Z" transform="translate(-4571.303 -535.051)" fill="#565556"/>
    <path id="Path_40" data-name="Path 40" d="M4523.662,1904.457a3.821,3.821,0,1,0,5.4-.361A3.819,3.819,0,0,0,4523.662,1904.457Z" transform="translate(-4448.14 -538.251)" fill="#565556"/>
    <path id="Path_41" data-name="Path 41" d="M4567.664,1865.162a5.095,5.095,0,1,0,7.192-.482A5.09,5.09,0,0,0,4567.664,1865.162Z" transform="translate(-4561.432 -559.506)" fill="#565556"/>
    <path id="Path_42" data-name="Path 42" d="M4480.2,1894.842a2.547,2.547,0,1,0,3.6-.239A2.544,2.544,0,0,0,4480.2,1894.842Z" transform="translate(-4336.212 -543.162)" fill="#565556"/>
    <path id="Path_43" data-name="Path 43" d="M4524.2,1855.547a3.821,3.821,0,1,0,5.393-.361A3.816,3.816,0,0,0,4524.2,1855.547Z" transform="translate(-4449.503 -564.416)" fill="#565556"/>
    <path id="Path_44" data-name="Path 44" d="M4568.2,1816.25a5.094,5.094,0,1,0,7.189-.48A5.088,5.088,0,0,0,4568.2,1816.25Z" transform="translate(-4562.793 -585.671)" fill="#565556"/>
    <path id="Path_45" data-name="Path 45" d="M4475.614,1849.564a3.821,3.821,0,1,0,5.392-.361A3.818,3.818,0,0,0,4475.614,1849.564Z" transform="translate(-4326.338 -567.617)" fill="#565556"/>
    <path id="Path_46" data-name="Path 46" d="M4519.616,1810.268a5.094,5.094,0,1,0,7.191-.48A5.089,5.089,0,0,0,4519.616,1810.268Z" transform="translate(-4439.629 -588.871)" fill="#565556"/>
    <circle id="Ellipse_1" data-name="Ellipse 1" cx="6.365" cy="6.365" r="6.365" transform="matrix(-0.003, -1, 1, -0.003, 9.143, 1155.183)" fill="#565556"/>
    <path id="Path_47" data-name="Path 47" d="M4432.15,1839.949a2.547,2.547,0,1,0,3.6-.24A2.545,2.545,0,0,0,4432.15,1839.949Z" transform="translate(-4214.41 -572.527)" fill="#565556"/>
    <path id="Path_48" data-name="Path 48" d="M4476.152,1800.654a3.821,3.821,0,1,0,5.392-.361A3.816,3.816,0,0,0,4476.152,1800.654Z" transform="translate(-4327.7 -593.782)" fill="#565556"/>
    <path id="Path_49" data-name="Path 49" d="M4520.152,1761.357a5.095,5.095,0,1,0,7.192-.481A5.09,5.09,0,0,0,4520.152,1761.357Z" transform="translate(-4440.991 -632.248)" fill="#565556"/>
    <path id="Path_50" data-name="Path 50" d="M4564.154,1722.061a6.368,6.368,0,1,0,8.989-.6A6.363,6.363,0,0,0,4564.154,1722.061Z" transform="translate(-4554.283 -657.065)" fill="#565556"/>
    <path id="Path_51" data-name="Path 51" d="M4427.566,1794.671a3.821,3.821,0,1,0,5.392-.361A3.815,3.815,0,0,0,4427.566,1794.671Z" transform="translate(-4204.537 -596.982)" fill="#565556"/>
    <path id="Path_52" data-name="Path 52" d="M4471.568,1755.375a5.094,5.094,0,1,0,7.189-.481A5.087,5.087,0,0,0,4471.568,1755.375Z" transform="translate(-4317.828 -636.001)" fill="#565556"/>
    <path id="Path_53" data-name="Path 53" d="M4515.567,1716.08a6.369,6.369,0,1,0,8.991-.6A6.364,6.364,0,0,0,4515.567,1716.08Z" transform="translate(-4431.119 -660.82)" fill="#565556"/>
    <path id="Path_54" data-name="Path 54" d="M4559.569,1676.785a7.642,7.642,0,1,0,10.788-.721A7.632,7.632,0,0,0,4559.569,1676.785Z" transform="translate(-4544.41 -685.653)" fill="#565556"/>
    <path id="Path_55" data-name="Path 55" d="M4384.1,1785.056a2.547,2.547,0,1,0,3.6-.239A2.547,2.547,0,0,0,4384.1,1785.056Z" transform="translate(-4092.608 -601.893)" fill="#565556"/>
    <path id="Path_56" data-name="Path 56" d="M4428.1,1745.761a3.821,3.821,0,1,0,5.394-.361A3.817,3.817,0,0,0,4428.1,1745.761Z" transform="translate(-4205.9 -641.88)" fill="#565556"/>
    <path id="Path_57" data-name="Path 57" d="M4472.1,1706.466a5.094,5.094,0,1,0,7.192-.482A5.089,5.089,0,0,0,4472.1,1706.466Z" transform="translate(-4319.192 -666.695)" fill="#565556"/>
    <path id="Path_58" data-name="Path 58" d="M4516.1,1667.17a6.368,6.368,0,1,0,8.99-.6A6.363,6.363,0,0,0,4516.1,1667.17Z" transform="translate(-4432.482 -691.521)" fill="#565556"/>
    <path id="Path_59" data-name="Path 59" d="M4560.107,1627.875a7.642,7.642,0,1,0,10.788-.721A7.633,7.633,0,0,0,4560.107,1627.875Z" transform="translate(-4545.774 -716.362)" fill="#565556"/>
    <path id="Path_60" data-name="Path 60" d="M4379.517,1739.778a3.821,3.821,0,1,0,5.393-.361A3.816,3.816,0,0,0,4379.517,1739.778Z" transform="translate(-4082.735 -645.634)" fill="#565556"/>
    <path id="Path_61" data-name="Path 61" d="M4423.517,1700.482a5.095,5.095,0,1,0,7.191-.48A5.09,5.09,0,0,0,4423.517,1700.482Z" transform="translate(-4196.026 -670.449)" fill="#565556"/>
    <path id="Path_62" data-name="Path 62" d="M4467.519,1661.187a6.368,6.368,0,1,0,8.989-.6A6.363,6.363,0,0,0,4467.519,1661.187Z" transform="translate(-4309.316 -695.277)" fill="#565556"/>
    <path id="Path_63" data-name="Path 63" d="M4511.521,1621.892a7.642,7.642,0,1,0,10.788-.722A7.634,7.634,0,0,0,4511.521,1621.892Z" transform="translate(-4422.609 -720.119)" fill="#565556"/>
    <path id="Path_64" data-name="Path 64" d="M4555.523,1582.6a8.915,8.915,0,1,0,12.584-.841A8.905,8.905,0,0,0,4555.523,1582.6Z" transform="translate(-4535.901 -744.974)" fill="#565556"/>
    <path id="Path_65" data-name="Path 65" d="M4336.052,1730.163a2.547,2.547,0,1,0,3.6-.24A2.545,2.545,0,0,0,4336.052,1730.163Z" transform="translate(-3970.806 -651.508)" fill="#565556"/>
    <path id="Path_66" data-name="Path 66" d="M4380.053,1690.868a3.822,3.822,0,1,0,5.394-.361A3.817,3.817,0,0,0,4380.053,1690.868Z" transform="translate(-4084.098 -676.318)" fill="#565556"/>
    <path id="Path_67" data-name="Path 67" d="M4424.055,1651.572a5.095,5.095,0,1,0,7.191-.48A5.09,5.09,0,0,0,4424.055,1651.572Z" transform="translate(-4197.39 -701.141)" fill="#565556"/>
    <path id="Path_68" data-name="Path 68" d="M4468.057,1612.277a6.368,6.368,0,1,0,8.989-.6A6.362,6.362,0,0,0,4468.057,1612.277Z" transform="translate(-4310.68 -725.978)" fill="#565556"/>
    <path id="Path_69" data-name="Path 69" d="M4512.059,1572.982a7.641,7.641,0,1,0,10.788-.721A7.633,7.633,0,0,0,4512.059,1572.982Z" transform="translate(-4423.973 -750.828)" fill="#565556"/>
    <path id="Path_70" data-name="Path 70" d="M4556.06,1533.687a8.916,8.916,0,1,0,12.585-.843A8.906,8.906,0,0,0,4556.06,1533.687Z" transform="translate(-4537.264 -775.693)" fill="#565556"/>
    <path id="Path_71" data-name="Path 71" d="M4331.467,1684.885a3.822,3.822,0,1,0,5.394-.359A3.817,3.817,0,0,0,4331.467,1684.885Z" transform="translate(-3960.934 -680.071)" fill="#565556"/>
    <path id="Path_72" data-name="Path 72" d="M4375.47,1645.589a5.094,5.094,0,1,0,7.191-.48A5.088,5.088,0,0,0,4375.47,1645.589Z" transform="translate(-4074.225 -704.896)" fill="#565556"/>
    <path id="Path_73" data-name="Path 73" d="M4419.471,1606.294a6.368,6.368,0,1,0,8.988-.6A6.362,6.362,0,0,0,4419.471,1606.294Z" transform="translate(-4187.516 -729.733)" fill="#565556"/>
    <path id="Path_74" data-name="Path 74" d="M4463.473,1567a7.642,7.642,0,1,0,10.786-.72A7.634,7.634,0,0,0,4463.473,1567Z" transform="translate(-4300.808 -754.585)" fill="#565556"/>
    <path id="Path_75" data-name="Path 75" d="M4507.473,1527.7a8.916,8.916,0,1,0,12.585-.841A8.908,8.908,0,0,0,4507.473,1527.7Z" transform="translate(-4414.099 -779.451)" fill="#565556"/>
    <path id="Path_76" data-name="Path 76" d="M4551.475,1488.408a10.188,10.188,0,1,0,14.382-.961A10.178,10.178,0,0,0,4551.475,1488.408Z" transform="translate(-4527.391 -804.329)" fill="#565556"/>
    <path id="Path_77" data-name="Path 77" d="M4288,1675.27a2.548,2.548,0,1,0,3.6-.24A2.545,2.545,0,0,0,4288,1675.27Z" transform="translate(-3849.006 -685.936)" fill="#565556"/>
    <path id="Path_78" data-name="Path 78" d="M4332.006,1635.975a3.821,3.821,0,1,0,5.393-.359A3.818,3.818,0,0,0,4332.006,1635.975Z" transform="translate(-3962.297 -710.755)" fill="#565556"/>
    <path id="Path_79" data-name="Path 79" d="M4376.006,1596.679a5.094,5.094,0,1,0,7.192-.48A5.09,5.09,0,0,0,4376.006,1596.679Z" transform="translate(-4075.588 -735.588)" fill="#565556"/>
    <path id="Path_80" data-name="Path 80" d="M4420.009,1557.384a6.368,6.368,0,1,0,8.988-.6A6.363,6.363,0,0,0,4420.009,1557.384Z" transform="translate(-4188.88 -760.435)" fill="#565556"/>
    <path id="Path_81" data-name="Path 81" d="M4464.01,1518.089a7.642,7.642,0,1,0,10.787-.721A7.632,7.632,0,0,0,4464.01,1518.089Z" transform="translate(-4302.17 -785.295)" fill="#565556"/>
    <path id="Path_82" data-name="Path 82" d="M4508.011,1478.793a8.916,8.916,0,1,0,12.585-.841A8.9,8.9,0,0,0,4508.011,1478.793Z" transform="translate(-4415.463 -810.169)" fill="#565556"/>
    <path id="Path_83" data-name="Path 83" d="M4552.013,1439.5a10.189,10.189,0,1,0,14.382-.961A10.179,10.179,0,0,0,4552.013,1439.5Z" transform="translate(-4528.754 -835.056)" fill="#565556"/>
    <path id="Path_84" data-name="Path 84" d="M4283.417,1629.993a3.821,3.821,0,1,0,5.394-.361A3.816,3.816,0,0,0,4283.417,1629.993Z" transform="translate(-3839.132 -714.508)" fill="#565556"/>
    <path id="Path_85" data-name="Path 85" d="M4327.419,1590.7a5.1,5.1,0,1,0,7.193-.482A5.09,5.09,0,0,0,4327.419,1590.7Z" transform="translate(-3952.423 -739.343)" fill="#565556"/>
    <path id="Path_86" data-name="Path 86" d="M4371.42,1551.4a6.368,6.368,0,1,0,8.989-.6A6.362,6.362,0,0,0,4371.42,1551.4Z" transform="translate(-4065.715 -764.19)" fill="#565556"/>
    <path id="Path_87" data-name="Path 87" d="M4415.423,1512.107a7.641,7.641,0,1,0,10.788-.721A7.631,7.631,0,0,0,4415.423,1512.107Z" transform="translate(-4179.007 -789.051)" fill="#565556"/>
    <path id="Path_88" data-name="Path 88" d="M4459.425,1472.812a8.915,8.915,0,1,0,12.583-.843A8.905,8.905,0,0,0,4459.425,1472.812Z" transform="translate(-4292.297 -813.926)" fill="#565556"/>
    <path id="Path_89" data-name="Path 89" d="M4503.426,1433.516a10.189,10.189,0,1,0,14.384-.962A10.177,10.177,0,0,0,4503.426,1433.516Z" transform="translate(-4405.59 -838.815)" fill="#565556"/>
    <path id="Path_90" data-name="Path 90" d="M4547.427,1394.219a11.463,11.463,0,1,0,16.18-1.08A11.45,11.45,0,0,0,4547.427,1394.219Z" transform="translate(-4518.88 -863.717)" fill="#565556"/>
    <path id="Path_91" data-name="Path 91" d="M4239.956,1620.378a2.547,2.547,0,1,0,3.6-.24A2.542,2.542,0,0,0,4239.956,1620.378Z" transform="translate(-3727.204 -720.363)" fill="#565556"/>
    <path id="Path_92" data-name="Path 92" d="M4283.956,1581.081a3.822,3.822,0,1,0,5.393-.359A3.819,3.819,0,0,0,4283.956,1581.081Z" transform="translate(-3840.494 -745.192)" fill="#565556"/>
    <path id="Path_93" data-name="Path 93" d="M4327.958,1541.786a5.095,5.095,0,1,0,7.191-.481A5.09,5.09,0,0,0,4327.958,1541.786Z" transform="translate(-3953.787 -770.035)" fill="#565556"/>
    <path id="Path_94" data-name="Path 94" d="M4371.96,1502.491a6.368,6.368,0,1,0,8.989-.6A6.363,6.363,0,0,0,4371.96,1502.491Z" transform="translate(-4067.078 -794.891)" fill="#565556"/>
    <path id="Path_95" data-name="Path 95" d="M4415.962,1463.2a7.642,7.642,0,1,0,10.787-.721A7.634,7.634,0,0,0,4415.962,1463.2Z" transform="translate(-4180.371 -819.761)" fill="#565556"/>
    <path id="Path_96" data-name="Path 96" d="M4459.962,1423.9a8.915,8.915,0,1,0,12.583-.841A8.908,8.908,0,0,0,4459.962,1423.9Z" transform="translate(-4293.661 -844.644)" fill="#565556"/>
    <ellipse id="Ellipse_2" data-name="Ellipse 2" cx="10.192" cy="10.184" rx="10.192" ry="10.184" transform="translate(114.826 532.001) rotate(-179.714)" fill="#565556"/>
    <ellipse id="Ellipse_3" data-name="Ellipse 3" cx="11.467" cy="11.457" rx="11.467" ry="11.457" transform="translate(47.78 469.894) rotate(-179.807)" fill="#565556"/>
    <path id="Path_97" data-name="Path 97" d="M4235.371,1575.1a3.822,3.822,0,1,0,5.393-.359A3.819,3.819,0,0,0,4235.371,1575.1Z" transform="translate(-3717.33 -748.946)" fill="#565556"/>
    <path id="Path_98" data-name="Path 98" d="M4279.374,1535.8a5.094,5.094,0,1,0,7.19-.479A5.09,5.09,0,0,0,4279.374,1535.8Z" transform="translate(-3830.623 -773.789)" fill="#565556"/>
    <path id="Path_99" data-name="Path 99" d="M4323.374,1496.508a6.368,6.368,0,1,0,8.988-.6A6.363,6.363,0,0,0,4323.374,1496.508Z" transform="translate(-3943.913 -798.646)" fill="#565556"/>
    <path id="Path_100" data-name="Path 100" d="M4367.375,1457.212a7.642,7.642,0,1,0,10.786-.72A7.635,7.635,0,0,0,4367.375,1457.212Z" transform="translate(-4057.204 -823.517)" fill="#565556"/>
    <path id="Path_101" data-name="Path 101" d="M4411.376,1417.917a8.915,8.915,0,1,0,12.584-.841A8.905,8.905,0,0,0,4411.376,1417.917Z" transform="translate(-4170.496 -848.402)" fill="#565556"/>
    <path id="Path_102" data-name="Path 102" d="M4455.378,1378.622a10.189,10.189,0,1,0,14.381-.961A10.178,10.178,0,0,0,4455.378,1378.622Z" transform="translate(-4283.787 -873.301)" fill="#565556"/>
    <path id="Path_103" data-name="Path 103" d="M4499.379,1339.326a11.463,11.463,0,1,0,16.179-1.081A11.448,11.448,0,0,0,4499.379,1339.326Z" transform="translate(-4397.079 -898.213)" fill="#565556"/>
    <path id="Path_104" data-name="Path 104" d="M4543.38,1300.031a12.735,12.735,0,1,0,17.979-1.2A12.723,12.723,0,0,0,4543.38,1300.031Z" transform="translate(-4510.37 -923.139)" fill="#565556"/>
    <path id="Path_105" data-name="Path 105" d="M4191.908,1565.485a2.547,2.547,0,1,0,3.594-.239A2.543,2.543,0,0,0,4191.908,1565.485Z" transform="translate(-3605.404 -754.791)" fill="#565556"/>
    <path id="Path_106" data-name="Path 106" d="M4235.908,1526.188a3.822,3.822,0,1,0,5.393-.359A3.819,3.819,0,0,0,4235.908,1526.188Z" transform="translate(-3718.693 -779.63)" fill="#565556"/>
    <path id="Path_107" data-name="Path 107" d="M4279.911,1486.893a5.094,5.094,0,1,0,7.189-.48A5.087,5.087,0,0,0,4279.911,1486.893Z" transform="translate(-3831.984 -804.482)" fill="#565556"/>
    <path id="Path_108" data-name="Path 108" d="M4323.911,1447.6a6.368,6.368,0,1,0,8.989-.6A6.362,6.362,0,0,0,4323.911,1447.6Z" transform="translate(-3945.277 -829.347)" fill="#565556"/>
    <path id="Path_109" data-name="Path 109" d="M4367.914,1408.3a7.642,7.642,0,1,0,10.786-.72A7.634,7.634,0,0,0,4367.914,1408.3Z" transform="translate(-4058.569 -854.227)" fill="#565556"/>
    <path id="Path_110" data-name="Path 110" d="M4411.914,1369.007a8.915,8.915,0,1,0,12.584-.841A8.9,8.9,0,0,0,4411.914,1369.007Z" transform="translate(-4171.859 -879.12)" fill="#565556"/>
    <path id="Path_111" data-name="Path 111" d="M4455.915,1329.712a10.188,10.188,0,1,0,14.381-.961A10.178,10.178,0,0,0,4455.915,1329.712Z" transform="translate(-4285.15 -904.028)" fill="#565556"/>
    <ellipse id="Ellipse_4" data-name="Ellipse 4" cx="11.467" cy="11.457" rx="11.467" ry="11.457" transform="translate(98.639 357.553)" fill="#565556"/>
    <path id="Path_112" data-name="Path 112" d="M4543.919,1251.121a12.736,12.736,0,1,0,17.978-1.2A12.723,12.723,0,0,0,4543.919,1251.121Z" transform="translate(-4511.734 -953.884)" fill="#565556"/>
    <path id="Path_113" data-name="Path 113" d="M4187.321,1520.207a3.821,3.821,0,1,0,5.394-.361A3.818,3.818,0,0,0,4187.321,1520.207Z" transform="translate(-3595.529 -783.383)" fill="#565556"/>
    <path id="Path_114" data-name="Path 114" d="M4231.323,1480.911a5.094,5.094,0,1,0,7.191-.481A5.089,5.089,0,0,0,4231.323,1480.911Z" transform="translate(-3708.82 -808.236)" fill="#565556"/>
    <path id="Path_115" data-name="Path 115" d="M4275.323,1441.616a6.368,6.368,0,1,0,8.989-.6A6.36,6.36,0,0,0,4275.323,1441.616Z" transform="translate(-3822.111 -833.103)" fill="#565556"/>
    <path id="Path_116" data-name="Path 116" d="M4319.326,1402.321a7.642,7.642,0,1,0,10.788-.721A7.631,7.631,0,0,0,4319.326,1402.321Z" transform="translate(-3935.404 -857.983)" fill="#565556"/>
    <path id="Path_117" data-name="Path 117" d="M4363.327,1363.025a8.916,8.916,0,1,0,12.584-.841A8.9,8.9,0,0,0,4363.327,1363.025Z" transform="translate(-4048.695 -882.878)" fill="#565556"/>
    <path id="Path_118" data-name="Path 118" d="M4407.329,1323.73a10.188,10.188,0,1,0,14.382-.962A10.178,10.178,0,0,0,4407.329,1323.73Z" transform="translate(-4161.986 -907.786)" fill="#565556"/>
    <path id="Path_119" data-name="Path 119" d="M4451.331,1284.435a11.462,11.462,0,1,0,16.179-1.082A11.448,11.448,0,0,0,4451.331,1284.435Z" transform="translate(-4275.276 -932.708)" fill="#565556"/>
    <path id="Path_120" data-name="Path 120" d="M4495.333,1245.138a12.736,12.736,0,1,0,17.978-1.2A12.722,12.722,0,0,0,4495.333,1245.138Z" transform="translate(-4388.569 -957.644)" fill="#565556"/>
    <path id="Path_121" data-name="Path 121" d="M4539.333,1205.843a14.01,14.01,0,1,0,19.778-1.322A13.994,13.994,0,0,0,4539.333,1205.843Z" transform="translate(-4501.859 -995.177)" fill="#565556"/>
    <path id="Path_122" data-name="Path 122" d="M4143.857,1510.592a2.547,2.547,0,1,0,3.6-.239A2.546,2.546,0,0,0,4143.857,1510.592Z" transform="translate(-3483.601 -789.219)" fill="#565556"/>
    <path id="Path_123" data-name="Path 123" d="M4187.858,1471.3a3.821,3.821,0,1,0,5.394-.361A3.818,3.818,0,0,0,4187.858,1471.3Z" transform="translate(-3596.892 -814.067)" fill="#565556"/>
    <path id="Path_124" data-name="Path 124" d="M4231.86,1432a5.094,5.094,0,1,0,7.191-.482A5.088,5.088,0,0,0,4231.86,1432Z" transform="translate(-3710.183 -838.929)" fill="#565556"/>
    <path id="Path_125" data-name="Path 125" d="M4275.861,1392.706a6.368,6.368,0,1,0,8.989-.6A6.361,6.361,0,0,0,4275.861,1392.706Z" transform="translate(-3823.474 -863.804)" fill="#565556"/>
    <path id="Path_126" data-name="Path 126" d="M4319.864,1353.411a7.642,7.642,0,1,0,10.788-.722A7.632,7.632,0,0,0,4319.864,1353.411Z" transform="translate(-3936.768 -888.693)" fill="#565556"/>
    <path id="Path_127" data-name="Path 127" d="M4363.865,1314.116a8.915,8.915,0,1,0,12.585-.843A8.9,8.9,0,0,0,4363.865,1314.116Z" transform="translate(-4050.059 -913.596)" fill="#565556"/>
    <path id="Path_128" data-name="Path 128" d="M4407.866,1274.82a10.188,10.188,0,1,0,14.383-.963A10.178,10.178,0,0,0,4407.866,1274.82Z" transform="translate(-4163.349 -938.513)" fill="#565556"/>
    <path id="Path_129" data-name="Path 129" d="M4451.868,1235.525a11.462,11.462,0,1,0,16.18-1.082A11.447,11.447,0,0,0,4451.868,1235.525Z" transform="translate(-4276.64 -963.444)" fill="#565556"/>
    <path id="Path_130" data-name="Path 130" d="M4495.87,1196.228a12.736,12.736,0,1,0,17.977-1.2A12.723,12.723,0,0,0,4495.87,1196.228Z" transform="translate(-4389.932 -1000.088)" fill="#565556"/>
    <path id="Path_131" data-name="Path 131" d="M4539.869,1156.933a14.01,14.01,0,1,0,19.779-1.322A14,14,0,0,0,4539.869,1156.933Z" transform="translate(-4503.222 -1021.342)" fill="#565556"/>
    <path id="Path_132" data-name="Path 132" d="M4139.274,1465.314a3.821,3.821,0,1,0,5.392-.361A3.814,3.814,0,0,0,4139.274,1465.314Z" transform="translate(-3473.729 -817.82)" fill="#565556"/>
    <path id="Path_133" data-name="Path 133" d="M4183.275,1426.018a5.094,5.094,0,1,0,7.19-.48A5.088,5.088,0,0,0,4183.275,1426.018Z" transform="translate(-3587.019 -842.683)" fill="#565556"/>
    <path id="Path_134" data-name="Path 134" d="M4227.275,1386.723a6.368,6.368,0,1,0,8.99-.6A6.365,6.365,0,0,0,4227.275,1386.723Z" transform="translate(-3700.31 -867.559)" fill="#565556"/>
    <path id="Path_135" data-name="Path 135" d="M4271.277,1347.428a7.642,7.642,0,1,0,10.788-.721A7.637,7.637,0,0,0,4271.277,1347.428Z" transform="translate(-3813.601 -892.45)" fill="#565556"/>
    <path id="Path_136" data-name="Path 136" d="M4315.28,1308.133a8.915,8.915,0,1,0,12.585-.843A8.9,8.9,0,0,0,4315.28,1308.133Z" transform="translate(-3926.894 -917.354)" fill="#565556"/>
    <path id="Path_137" data-name="Path 137" d="M4359.281,1268.837a10.188,10.188,0,1,0,14.381-.963A10.178,10.178,0,0,0,4359.281,1268.837Z" transform="translate(-4040.185 -942.271)" fill="#565556"/>
    <path id="Path_138" data-name="Path 138" d="M4403.283,1229.542a11.462,11.462,0,1,0,16.18-1.082A11.449,11.449,0,0,0,4403.283,1229.542Z" transform="translate(-4153.477 -982.034)" fill="#565556"/>
    <path id="Path_139" data-name="Path 139" d="M4447.283,1190.245a12.737,12.737,0,1,0,17.979-1.2A12.723,12.723,0,0,0,4447.283,1190.245Z" transform="translate(-4266.768 -1003.288)" fill="#565556"/>
    <path id="Path_140" data-name="Path 140" d="M4491.285,1150.949a14.01,14.01,0,1,0,19.775-1.32A13.992,13.992,0,0,0,4491.285,1150.949Z" transform="translate(-4380.06 -1024.542)" fill="#565556"/>
    <path id="Path_141" data-name="Path 141" d="M4535.286,1111.654a15.284,15.284,0,1,0,21.572-1.441A15.269,15.269,0,0,0,4535.286,1111.654Z" transform="translate(-4493.35 -1045.796)" fill="#565556"/>
    <path id="Path_142" data-name="Path 142" d="M4095.809,1455.7a2.547,2.547,0,1,0,3.6-.239A2.547,2.547,0,0,0,4095.809,1455.7Z" transform="translate(-3361.8 -823.647)" fill="#565556"/>
    <path id="Path_143" data-name="Path 143" d="M4139.811,1416.4a3.821,3.821,0,1,0,5.394-.361A3.817,3.817,0,0,0,4139.811,1416.4Z" transform="translate(-3475.09 -848.504)" fill="#565556"/>
    <path id="Path_144" data-name="Path 144" d="M4183.813,1377.107a5.094,5.094,0,1,0,7.19-.479A5.09,5.09,0,0,0,4183.813,1377.107Z" transform="translate(-3588.383 -873.375)" fill="#565556"/>
    <path id="Path_145" data-name="Path 145" d="M4227.814,1337.811a6.368,6.368,0,1,0,8.989-.6A6.363,6.363,0,0,0,4227.814,1337.811Z" transform="translate(-3701.674 -898.26)" fill="#565556"/>
    <path id="Path_146" data-name="Path 146" d="M4271.816,1298.516a7.642,7.642,0,1,0,10.786-.72A7.635,7.635,0,0,0,4271.816,1298.516Z" transform="translate(-3814.965 -923.159)" fill="#565556"/>
    <path id="Path_147" data-name="Path 147" d="M4315.816,1259.221a8.916,8.916,0,1,0,12.585-.841A8.907,8.907,0,0,0,4315.816,1259.221Z" transform="translate(-3928.256 -948.073)" fill="#565556"/>
    <path id="Path_148" data-name="Path 148" d="M4359.817,1219.926a10.189,10.189,0,1,0,14.382-.961A10.179,10.179,0,0,0,4359.817,1219.926Z" transform="translate(-4041.547 -986.945)" fill="#565556"/>
    <path id="Path_149" data-name="Path 149" d="M4403.819,1180.63a11.463,11.463,0,1,0,16.181-1.08A11.451,11.451,0,0,0,4403.819,1180.63Z" transform="translate(-4154.838 -1008.199)" fill="#565556"/>
    <path id="Path_150" data-name="Path 150" d="M4447.821,1141.335a12.736,12.736,0,1,0,17.978-1.2A12.725,12.725,0,0,0,4447.821,1141.335Z" transform="translate(-4268.13 -1029.453)" fill="#565556"/>
    <path id="Path_151" data-name="Path 151" d="M4491.824,1102.039a14.009,14.009,0,1,0,19.774-1.322A13.992,13.992,0,0,0,4491.824,1102.039Z" transform="translate(-4381.423 -1050.707)" fill="#565556"/>
    <path id="Path_152" data-name="Path 152" d="M4091.224,1410.42a3.822,3.822,0,1,0,5.394-.361A3.818,3.818,0,0,0,4091.224,1410.42Z" transform="translate(-3351.927 -852.257)" fill="#565556"/>
    <path id="Path_153" data-name="Path 153" d="M4135.225,1371.125a5.095,5.095,0,1,0,7.192-.48A5.089,5.089,0,0,0,4135.225,1371.125Z" transform="translate(-3465.217 -877.13)" fill="#565556"/>
    <path id="Path_154" data-name="Path 154" d="M4179.227,1331.83a6.368,6.368,0,1,0,8.989-.6A6.364,6.364,0,0,0,4179.227,1331.83Z" transform="translate(-3578.508 -902.016)" fill="#565556"/>
    <path id="Path_155" data-name="Path 155" d="M4223.229,1292.535a7.642,7.642,0,1,0,10.786-.72A7.634,7.634,0,0,0,4223.229,1292.535Z" transform="translate(-3691.801 -926.916)" fill="#565556"/>
    <path id="Path_156" data-name="Path 156" d="M4267.23,1253.24a8.915,8.915,0,1,0,12.584-.841A8.9,8.9,0,0,0,4267.23,1253.24Z" transform="translate(-3805.091 -951.83)" fill="#565556"/>
    <path id="Path_157" data-name="Path 157" d="M4311.231,1213.944a10.189,10.189,0,1,0,14.383-.962A10.179,10.179,0,0,0,4311.231,1213.944Z" transform="translate(-3918.384 -990.145)" fill="#565556"/>
    <ellipse id="Ellipse_5" data-name="Ellipse 5" cx="11.467" cy="11.457" rx="11.467" ry="11.457" transform="translate(320.723 159.334)" fill="#565556"/>
    <path id="Path_158" data-name="Path 158" d="M4399.234,1135.353a12.736,12.736,0,1,0,17.979-1.2A12.723,12.723,0,0,0,4399.234,1135.353Z" transform="translate(-4144.966 -1032.654)" fill="#565556"/>
    <path id="Path_159" data-name="Path 159" d="M4443.236,1096.056a14.01,14.01,0,1,0,19.776-1.32A14,14,0,0,0,4443.236,1096.056Z" transform="translate(-4258.257 -1053.908)" fill="#565556"/>
    <path id="Path_160" data-name="Path 160" d="M4047.76,1400.806a2.547,2.547,0,1,0,3.6-.24A2.545,2.545,0,0,0,4047.76,1400.806Z" transform="translate(-3239.998 -858.074)" fill="#565556"/>
    <path id="Path_161" data-name="Path 161" d="M4091.761,1361.511a3.821,3.821,0,1,0,5.394-.361A3.818,3.818,0,0,0,4091.761,1361.511Z" transform="translate(-3353.29 -882.942)" fill="#565556"/>
    <path id="Path_162" data-name="Path 162" d="M4135.763,1322.215a5.095,5.095,0,1,0,7.192-.48A5.089,5.089,0,0,0,4135.763,1322.215Z" transform="translate(-3466.582 -907.822)" fill="#565556"/>
    <path id="Path_163" data-name="Path 163" d="M4179.765,1282.92a6.368,6.368,0,1,0,8.989-.6A6.361,6.361,0,0,0,4179.765,1282.92Z" transform="translate(-3579.873 -932.717)" fill="#565556"/>
    <path id="Path_164" data-name="Path 164" d="M4223.766,1243.625a7.642,7.642,0,1,0,10.788-.721A7.631,7.631,0,0,0,4223.766,1243.625Z" transform="translate(-3693.164 -957.625)" fill="#565556"/>
    <path id="Path_165" data-name="Path 165" d="M4267.767,1204.33a8.916,8.916,0,1,0,12.585-.843A8.906,8.906,0,0,0,4267.767,1204.33Z" transform="translate(-3806.455 -995.056)" fill="#565556"/>
    <path id="Path_166" data-name="Path 166" d="M4311.77,1165.034a10.189,10.189,0,1,0,14.383-.963A10.18,10.18,0,0,0,4311.77,1165.034Z" transform="translate(-3919.748 -1016.31)" fill="#565556"/>
    <path id="Path_167" data-name="Path 167" d="M4355.771,1125.739a11.462,11.462,0,1,0,16.18-1.082A11.45,11.45,0,0,0,4355.771,1125.739Z" transform="translate(-4033.038 -1037.564)" fill="#565556"/>
    <path id="Path_168" data-name="Path 168" d="M4399.772,1086.443a12.736,12.736,0,1,0,17.979-1.2A12.723,12.723,0,0,0,4399.772,1086.443Z" transform="translate(-4146.329 -1058.818)" fill="#565556"/>
    <path id="Path_169" data-name="Path 169" d="M4043.175,1355.528a3.821,3.821,0,1,0,5.394-.361A3.818,3.818,0,0,0,4043.175,1355.528Z" transform="translate(-3230.124 -886.695)" fill="#565556"/>
    <path id="Path_170" data-name="Path 170" d="M4087.177,1316.232a5.094,5.094,0,1,0,7.191-.48A5.089,5.089,0,0,0,4087.177,1316.232Z" transform="translate(-3343.417 -911.577)" fill="#565556"/>
    <path id="Path_171" data-name="Path 171" d="M4131.179,1276.937a6.368,6.368,0,1,0,8.989-.6A6.363,6.363,0,0,0,4131.179,1276.937Z" transform="translate(-3456.707 -936.473)" fill="#565556"/>
    <path id="Path_172" data-name="Path 172" d="M4175.181,1237.641a7.642,7.642,0,1,0,10.786-.72A7.632,7.632,0,0,0,4175.181,1237.641Z" transform="translate(-3570 -961.382)" fill="#565556"/>
    <path id="Path_173" data-name="Path 173" d="M4219.18,1198.346a8.916,8.916,0,1,0,12.585-.841A8.908,8.908,0,0,0,4219.18,1198.346Z" transform="translate(-3683.29 -998.256)" fill="#565556"/>
    <path id="Path_174" data-name="Path 174" d="M4263.184,1159.051a10.188,10.188,0,1,0,14.382-.962A10.176,10.176,0,0,0,4263.184,1159.051Z" transform="translate(-3796.583 -1019.511)" fill="#565556"/>
    <path id="Path_175" data-name="Path 175" d="M4307.185,1119.755a11.462,11.462,0,1,0,16.18-1.081A11.449,11.449,0,0,0,4307.185,1119.755Z" transform="translate(-3909.873 -1040.764)" fill="#565556"/>
    <path id="Path_176" data-name="Path 176" d="M4351.186,1080.46a12.735,12.735,0,1,0,17.978-1.2A12.724,12.724,0,0,0,4351.186,1080.46Z" transform="translate(-4023.165 -1062.019)" fill="#565556"/>
    <path id="Path_177" data-name="Path 177" d="M3999.711,1345.913a2.548,2.548,0,1,0,3.6-.24A2.546,2.546,0,0,0,3999.711,1345.913Z" transform="translate(-3118.197 -892.503)" fill="#565556"/>
    <path id="Path_178" data-name="Path 178" d="M4043.713,1306.618a3.821,3.821,0,1,0,5.394-.361A3.817,3.817,0,0,0,4043.713,1306.618Z" transform="translate(-3231.488 -917.379)" fill="#565556"/>
    <ellipse id="Ellipse_6" data-name="Ellipse 6" cx="5.092" cy="5.092" rx="5.092" ry="5.092" transform="translate(741.719 333.536) rotate(-90.446)" fill="#565556"/>
    <path id="Path_179" data-name="Path 179" d="M4131.716,1228.027a6.368,6.368,0,1,0,8.989-.6A6.364,6.364,0,0,0,4131.716,1228.027Z" transform="translate(-3458.07 -981.913)" fill="#565556"/>
    <path id="Path_180" data-name="Path 180" d="M4175.719,1188.732a7.641,7.641,0,1,0,10.787-.721A7.632,7.632,0,0,0,4175.719,1188.732Z" transform="translate(-3571.364 -1003.167)" fill="#565556"/>
    <path id="Path_181" data-name="Path 181" d="M4219.717,1149.437a8.916,8.916,0,1,0,12.586-.843A8.905,8.905,0,0,0,4219.717,1149.437Z" transform="translate(-3684.653 -1024.422)" fill="#565556"/>
    <path id="Path_182" data-name="Path 182" d="M4263.721,1110.141a10.189,10.189,0,1,0,14.382-.962A10.179,10.179,0,0,0,4263.721,1110.141Z" transform="translate(-3797.944 -1045.675)" fill="#565556"/>
    <path id="Path_183" data-name="Path 183" d="M4307.723,1070.846a11.462,11.462,0,1,0,16.18-1.082A11.451,11.451,0,0,0,4307.723,1070.846Z" transform="translate(-3911.237 -1066.93)" fill="#565556"/>
    <path id="Path_184" data-name="Path 184" d="M3995.127,1300.634a3.821,3.821,0,1,0,5.392-.359A3.818,3.818,0,0,0,3995.127,1300.634Z" transform="translate(-3108.323 -921.132)" fill="#565556"/>
    <path id="Path_185" data-name="Path 185" d="M4039.13,1261.339a5.094,5.094,0,1,0,7.19-.479A5.089,5.089,0,0,0,4039.13,1261.339Z" transform="translate(-3221.615 -946.023)" fill="#565556"/>
    <path id="Path_186" data-name="Path 186" d="M4083.132,1222.044a6.368,6.368,0,1,0,8.987-.6A6.361,6.361,0,0,0,4083.132,1222.044Z" transform="translate(-3334.907 -985.113)" fill="#565556"/>
    <path id="Path_187" data-name="Path 187" d="M4127.131,1182.748a7.642,7.642,0,1,0,10.788-.72A7.633,7.633,0,0,0,4127.131,1182.748Z" transform="translate(-3448.198 -1006.367)" fill="#565556"/>
    <path id="Path_188" data-name="Path 188" d="M4171.132,1143.453a8.916,8.916,0,1,0,12.583-.841A8.908,8.908,0,0,0,4171.132,1143.453Z" transform="translate(-3561.488 -1027.622)" fill="#565556"/>
    <path id="Path_189" data-name="Path 189" d="M4215.135,1104.158a10.189,10.189,0,1,0,14.382-.961A10.176,10.176,0,0,0,4215.135,1104.158Z" transform="translate(-3674.78 -1048.876)" fill="#565556"/>
    <path id="Path_190" data-name="Path 190" d="M3951.663,1291.02a2.547,2.547,0,1,0,3.6-.24A2.548,2.548,0,0,0,3951.663,1291.02Z" transform="translate(-2996.395 -926.93)" fill="#565556"/>
    <path id="Path_191" data-name="Path 191" d="M3995.664,1251.725a3.821,3.821,0,1,0,5.393-.359A3.819,3.819,0,0,0,3995.664,1251.725Z" transform="translate(-3109.686 -951.816)" fill="#565556"/>
    <path id="Path_192" data-name="Path 192" d="M4039.666,1212.429a5.094,5.094,0,1,0,7.191-.481A5.09,5.09,0,0,0,4039.666,1212.429Z" transform="translate(-3222.978 -990.024)" fill="#565556"/>
    <path id="Path_193" data-name="Path 193" d="M4083.669,1173.134a6.368,6.368,0,1,0,8.989-.6A6.362,6.362,0,0,0,4083.669,1173.134Z" transform="translate(-3336.27 -1011.278)" fill="#565556"/>
    <path id="Path_194" data-name="Path 194" d="M4127.669,1133.839a7.642,7.642,0,1,0,10.788-.72A7.634,7.634,0,0,0,4127.669,1133.839Z" transform="translate(-3449.562 -1032.533)" fill="#565556"/>
    <path id="Path_195" data-name="Path 195" d="M4171.67,1094.543a8.915,8.915,0,1,0,12.583-.841A8.9,8.9,0,0,0,4171.67,1094.543Z" transform="translate(-3562.853 -1053.787)" fill="#565556"/>
    <path id="Path_196" data-name="Path 196" d="M3947.078,1245.743a3.821,3.821,0,1,0,5.394-.361A3.815,3.815,0,0,0,3947.078,1245.743Z" transform="translate(-2986.522 -955.569)" fill="#565556"/>
    <path id="Path_197" data-name="Path 197" d="M3991.08,1206.448a5.094,5.094,0,1,0,7.191-.482A5.089,5.089,0,0,0,3991.08,1206.448Z" transform="translate(-3099.813 -993.225)" fill="#565556"/>
    <path id="Path_198" data-name="Path 198" d="M4035.081,1167.152a6.368,6.368,0,1,0,8.989-.6A6.361,6.361,0,0,0,4035.081,1167.152Z" transform="translate(-3213.104 -1014.479)" fill="#565556"/>
    <path id="Path_199" data-name="Path 199" d="M4079.083,1127.857a7.641,7.641,0,1,0,10.786-.721A7.633,7.633,0,0,0,4079.083,1127.857Z" transform="translate(-3326.396 -1035.733)" fill="#565556"/>
    <path id="Path_200" data-name="Path 200" d="M4123.084,1088.562a8.916,8.916,0,1,0,12.585-.843A8.9,8.9,0,0,0,4123.084,1088.562Z" transform="translate(-3439.688 -1056.988)" fill="#565556"/>
    <path id="Path_201" data-name="Path 201" d="M3903.615,1236.128a2.547,2.547,0,1,0,3.595-.239A2.545,2.545,0,0,0,3903.615,1236.128Z" transform="translate(-2874.594 -976.881)" fill="#565556"/>
    <path id="Path_202" data-name="Path 202" d="M3947.617,1196.832a3.822,3.822,0,1,0,5.393-.359A3.815,3.815,0,0,0,3947.617,1196.832Z" transform="translate(-2987.885 -998.136)" fill="#565556"/>
    <ellipse id="Ellipse_7" data-name="Ellipse 7" cx="5.092" cy="5.092" rx="5.092" ry="5.092" transform="translate(889.225 146.63) rotate(-90.446)" fill="#565556"/>
    <path id="Path_203" data-name="Path 203" d="M4035.618,1118.241a6.368,6.368,0,1,0,8.99-.6A6.365,6.365,0,0,0,4035.618,1118.241Z" transform="translate(-3214.467 -1040.644)" fill="#565556"/>
    <path id="Path_204" data-name="Path 204" d="M4079.621,1078.945a7.642,7.642,0,1,0,10.786-.72A7.635,7.635,0,0,0,4079.621,1078.945Z" transform="translate(-3327.76 -1061.898)" fill="#565556"/>
    <path id="Path_205" data-name="Path 205" d="M3899.03,1190.85a3.821,3.821,0,1,0,5.392-.361A3.816,3.816,0,0,0,3899.03,1190.85Z" transform="translate(-2864.721 -1001.336)" fill="#565556"/>
    <path id="Path_206" data-name="Path 206" d="M3943.031,1151.554a5.094,5.094,0,1,0,7.191-.48A5.089,5.089,0,0,0,3943.031,1151.554Z" transform="translate(-2978.012 -1022.59)" fill="#565556"/>
    <path id="Path_207" data-name="Path 207" d="M3987.033,1112.259a6.368,6.368,0,1,0,8.989-.6A6.361,6.361,0,0,0,3987.033,1112.259Z" transform="translate(-3091.303 -1043.844)" fill="#565556"/>
    <path id="Path_208" data-name="Path 208" d="M4031.033,1072.964a7.641,7.641,0,1,0,10.788-.721A7.635,7.635,0,0,0,4031.033,1072.964Z" transform="translate(-3204.594 -1065.098)" fill="#565556"/>
    <path id="Path_209" data-name="Path 209" d="M3855.567,1181.235a2.547,2.547,0,1,0,3.595-.24A2.545,2.545,0,0,0,3855.567,1181.235Z" transform="translate(-2752.792 -1006.247)" fill="#565556"/>
    <path id="Path_210" data-name="Path 210" d="M3899.567,1141.938a3.822,3.822,0,1,0,5.394-.359A3.819,3.819,0,0,0,3899.567,1141.938Z" transform="translate(-2866.084 -1027.501)" fill="#565556"/>
    <path id="Path_211" data-name="Path 211" d="M3943.569,1102.643a5.095,5.095,0,1,0,7.191-.48A5.09,5.09,0,0,0,3943.569,1102.643Z" transform="translate(-2979.375 -1048.755)" fill="#565556"/>
    <path id="Path_212" data-name="Path 212" d="M3850.982,1135.957a3.821,3.821,0,1,0,5.392-.361A3.816,3.816,0,0,0,3850.982,1135.957Z" transform="translate(-2742.92 -1030.701)" fill="#565556"/>
    <path id="Path_213" data-name="Path 213" d="M3894.983,1096.661a5.094,5.094,0,1,0,7.19-.481A5.089,5.089,0,0,0,3894.983,1096.661Z" transform="translate(-2856.21 -1051.955)" fill="#565556"/>
  </g>
</svg>
