<svg xmlns="http://www.w3.org/2000/svg" width="1125.075" height="1521.532" viewBox="0 0 1125.075 1521.532">
  <g id="Group_2098" data-name="Group 2098" transform="translate(1164.367 1496.476) rotate(178)" opacity="0.35" style="isolation: isolate">
    <path id="Path_38" data-name="Path 38" d="M.656.907A2.652,2.652,0,1,0,4.4.656,2.652,2.652,0,0,0,.656.907Z" transform="translate(72.493 1494.616)" fill="#565556"/>
    <path id="Path_39" data-name="Path 39" d="M.984,1.358A3.98,3.98,0,1,0,6.6.984,3.976,3.976,0,0,0,.984,1.358Z" transform="translate(0 1431.1)" fill="#565556"/>
    <path id="Path_40" data-name="Path 40" d="M.984,1.359A3.98,3.98,0,1,0,6.6.983,3.977,3.977,0,0,0,.984,1.359Z" transform="translate(77.672 1421.537)" fill="#565556"/>
    <path id="Path_41" data-name="Path 41" d="M1.312,1.813a5.306,5.306,0,1,0,7.49-.5A5.3,5.3,0,0,0,1.312,1.813Z" transform="translate(5.178 1358.021)" fill="#565556"/>
    <path id="Path_42" data-name="Path 42" d="M.657.906A2.653,2.653,0,1,0,4.4.657,2.649,2.649,0,0,0,.657.906Z" transform="translate(149.305 1406.861)" fill="#565556"/>
    <path id="Path_43" data-name="Path 43" d="M.984,1.36A3.98,3.98,0,1,0,6.6.984,3.974,3.974,0,0,0,.984,1.36Z" transform="translate(76.813 1343.346)" fill="#565556"/>
    <path id="Path_44" data-name="Path 44" d="M1.313,1.812a5.305,5.305,0,1,0,7.487-.5A5.3,5.3,0,0,0,1.313,1.812Z" transform="translate(4.32 1279.83)" fill="#565556"/>
    <path id="Path_45" data-name="Path 45" d="M.984,1.359A3.98,3.98,0,1,0,6.6.983,3.976,3.976,0,0,0,.984,1.359Z" transform="translate(154.486 1333.782)" fill="#565556"/>
    <path id="Path_46" data-name="Path 46" d="M1.313,1.812a5.306,5.306,0,1,0,7.489-.5A5.3,5.3,0,0,0,1.313,1.812Z" transform="translate(81.993 1270.267)" fill="#565556"/>
    <ellipse id="Ellipse_1" data-name="Ellipse 1" cx="6.629" cy="6.629" rx="6.629" ry="6.629" transform="matrix(-0.003, -1, 1, -0.003, 9.523, 1203.117)" fill="#565556"/>
    <path id="Path_47" data-name="Path 47" d="M.657.906A2.653,2.653,0,1,0,4.4.657,2.651,2.651,0,0,0,.657.906Z" transform="translate(226.119 1319.107)" fill="#565556"/>
    <path id="Path_48" data-name="Path 48" d="M.986,1.359A3.98,3.98,0,1,0,6.6.984,3.974,3.974,0,0,0,.986,1.359Z" transform="translate(153.626 1255.592)" fill="#565556"/>
    <path id="Path_49" data-name="Path 49" d="M1.312,1.812a5.306,5.306,0,1,0,7.49-.5A5.3,5.3,0,0,0,1.312,1.812Z" transform="translate(81.133 1174.15)" fill="#565556"/>
    <path id="Path_50" data-name="Path 50" d="M1.64,2.263A6.632,6.632,0,1,0,11,1.64,6.627,6.627,0,0,0,1.64,2.263Z" transform="translate(8.64 1106.925)" fill="#565556"/>
    <path id="Path_51" data-name="Path 51" d="M.985,1.359A3.98,3.98,0,1,0,6.6.983,3.973,3.973,0,0,0,.985,1.359Z" transform="translate(231.299 1246.028)" fill="#565556"/>
    <path id="Path_52" data-name="Path 52" d="M1.314,1.812a5.306,5.306,0,1,0,7.487-.5A5.3,5.3,0,0,0,1.314,1.812Z" transform="translate(158.805 1164.01)" fill="#565556"/>
    <path id="Path_53" data-name="Path 53" d="M1.64,2.265A6.633,6.633,0,1,0,11,1.64,6.628,6.628,0,0,0,1.64,2.265Z" transform="translate(86.313 1096.782)" fill="#565556"/>
    <path id="Path_54" data-name="Path 54" d="M1.969,2.718A7.959,7.959,0,1,0,13.2,1.967,7.948,7.948,0,0,0,1.969,2.718Z" transform="translate(13.819 1029.54)" fill="#565556"/>
    <path id="Path_55" data-name="Path 55" d="M.656.906A2.653,2.653,0,1,0,4.4.657,2.652,2.652,0,0,0,.656.906Z" transform="translate(302.932 1231.352)" fill="#565556"/>
    <path id="Path_56" data-name="Path 56" d="M.985,1.359A3.98,3.98,0,1,0,6.6.984,3.975,3.975,0,0,0,.985,1.359Z" transform="translate(230.439 1148.326)" fill="#565556"/>
    <path id="Path_57" data-name="Path 57" d="M1.313,1.813a5.306,5.306,0,1,0,7.49-.5A5.3,5.3,0,0,0,1.313,1.813Z" transform="translate(157.945 1081.103)" fill="#565556"/>
    <path id="Path_58" data-name="Path 58" d="M1.639,2.265A6.632,6.632,0,1,0,11,1.64,6.627,6.627,0,0,0,1.639,2.265Z" transform="translate(85.453 1013.868)" fill="#565556"/>
    <path id="Path_59" data-name="Path 59" d="M1.968,2.718A7.959,7.959,0,1,0,13.2,1.967,7.95,7.95,0,0,0,1.968,2.718Z" transform="translate(12.96 946.617)" fill="#565556"/>
    <path id="Path_60" data-name="Path 60" d="M.985,1.359A3.98,3.98,0,1,0,6.6.983,3.975,3.975,0,0,0,.985,1.359Z" transform="translate(308.112 1138.186)" fill="#565556"/>
    <path id="Path_61" data-name="Path 61" d="M1.312,1.812a5.306,5.306,0,1,0,7.49-.5A5.3,5.3,0,0,0,1.312,1.812Z" transform="translate(235.619 1070.963)" fill="#565556"/>
    <path id="Path_62" data-name="Path 62" d="M1.641,2.265A6.632,6.632,0,1,0,11,1.64,6.627,6.627,0,0,0,1.641,2.265Z" transform="translate(163.125 1003.725)" fill="#565556"/>
    <path id="Path_63" data-name="Path 63" d="M1.969,2.718A7.958,7.958,0,1,0,13.2,1.966,7.95,7.95,0,0,0,1.969,2.718Z" transform="translate(90.632 936.474)" fill="#565556"/>
    <path id="Path_64" data-name="Path 64" d="M2.3,3.172A9.285,9.285,0,1,0,15.4,2.3,9.275,9.275,0,0,0,2.3,3.172Z" transform="translate(18.139 869.207)" fill="#565556"/>
    <path id="Path_65" data-name="Path 65" d="M.656.906A2.653,2.653,0,1,0,4.4.656,2.65,2.65,0,0,0,.656.906Z" transform="translate(379.746 1122.508)" fill="#565556"/>
    <path id="Path_66" data-name="Path 66" d="M.984,1.359A3.98,3.98,0,1,0,6.6.984,3.975,3.975,0,0,0,.984,1.359Z" transform="translate(307.252 1055.289)" fill="#565556"/>
    <path id="Path_67" data-name="Path 67" d="M1.311,1.812a5.306,5.306,0,1,0,7.49-.5A5.3,5.3,0,0,0,1.311,1.812Z" transform="translate(234.759 988.057)" fill="#565556"/>
    <path id="Path_68" data-name="Path 68" d="M1.641,2.265A6.632,6.632,0,1,0,11,1.64,6.627,6.627,0,0,0,1.641,2.265Z" transform="translate(162.266 920.811)" fill="#565556"/>
    <path id="Path_69" data-name="Path 69" d="M1.968,2.719A7.958,7.958,0,1,0,13.2,1.967,7.949,7.949,0,0,0,1.968,2.719Z" transform="translate(89.773 853.55)" fill="#565556"/>
    <path id="Path_70" data-name="Path 70" d="M2.3,3.172A9.285,9.285,0,1,0,15.4,2.295,9.275,9.275,0,0,0,2.3,3.172Z" transform="translate(17.28 786.274)" fill="#565556"/>
    <path id="Path_71" data-name="Path 71" d="M.984,1.358A3.98,3.98,0,1,0,6.6.984,3.975,3.975,0,0,0,.984,1.358Z" transform="translate(384.925 1045.15)" fill="#565556"/>
    <path id="Path_72" data-name="Path 72" d="M1.313,1.812a5.306,5.306,0,1,0,7.49-.5A5.3,5.3,0,0,0,1.313,1.812Z" transform="translate(312.432 977.916)" fill="#565556"/>
    <path id="Path_73" data-name="Path 73" d="M1.641,2.264A6.632,6.632,0,1,0,11,1.639,6.626,6.626,0,0,0,1.641,2.264Z" transform="translate(239.939 910.669)" fill="#565556"/>
    <path id="Path_74" data-name="Path 74" d="M1.969,2.717A7.959,7.959,0,1,0,13.2,1.967,7.95,7.95,0,0,0,1.969,2.717Z" transform="translate(167.445 843.407)" fill="#565556"/>
    <path id="Path_75" data-name="Path 75" d="M2.3,3.171A9.286,9.286,0,1,0,15.4,2.3,9.277,9.277,0,0,0,2.3,3.171Z" transform="translate(94.952 776.13)" fill="#565556"/>
    <path id="Path_76" data-name="Path 76" d="M2.625,3.624a10.611,10.611,0,1,0,14.978-1A10.6,10.6,0,0,0,2.625,3.624Z" transform="translate(22.459 708.84)" fill="#565556"/>
    <path id="Path_77" data-name="Path 77" d="M.655.905A2.654,2.654,0,1,0,4.4.656,2.651,2.651,0,0,0,.655.905Z" transform="translate(456.558 1029.482)" fill="#565556"/>
    <path id="Path_78" data-name="Path 78" d="M.984,1.358A3.98,3.98,0,1,0,6.6.984,3.976,3.976,0,0,0,.984,1.358Z" transform="translate(384.065 962.253)" fill="#565556"/>
    <path id="Path_79" data-name="Path 79" d="M1.312,1.812a5.306,5.306,0,1,0,7.49-.5A5.3,5.3,0,0,0,1.312,1.812Z" transform="translate(311.572 895.01)" fill="#565556"/>
    <path id="Path_80" data-name="Path 80" d="M1.64,2.265A6.632,6.632,0,1,0,11,1.64,6.627,6.627,0,0,0,1.64,2.265Z" transform="translate(239.079 827.753)" fill="#565556"/>
    <path id="Path_81" data-name="Path 81" d="M1.969,2.718A7.959,7.959,0,1,0,13.2,1.967,7.949,7.949,0,0,0,1.969,2.718Z" transform="translate(166.586 760.483)" fill="#565556"/>
    <path id="Path_82" data-name="Path 82" d="M2.3,3.172A9.286,9.286,0,1,0,15.4,2.3,9.274,9.274,0,0,0,2.3,3.172Z" transform="translate(94.092 693.197)" fill="#565556"/>
    <path id="Path_83" data-name="Path 83" d="M2.625,3.624a10.612,10.612,0,1,0,14.979-1A10.6,10.6,0,0,0,2.625,3.624Z" transform="translate(21.6 625.898)" fill="#565556"/>
    <path id="Path_84" data-name="Path 84" d="M.984,1.359A3.98,3.98,0,1,0,6.6.984,3.974,3.974,0,0,0,.984,1.359Z" transform="translate(461.738 952.113)" fill="#565556"/>
    <path id="Path_85" data-name="Path 85" d="M1.311,1.813a5.306,5.306,0,1,0,7.492-.5A5.3,5.3,0,0,0,1.311,1.813Z" transform="translate(389.245 884.869)" fill="#565556"/>
    <path id="Path_86" data-name="Path 86" d="M1.64,2.265A6.632,6.632,0,1,0,11,1.639,6.626,6.626,0,0,0,1.64,2.265Z" transform="translate(316.751 817.612)" fill="#565556"/>
    <path id="Path_87" data-name="Path 87" d="M1.968,2.718A7.958,7.958,0,1,0,13.2,1.967,7.949,7.949,0,0,0,1.968,2.718Z" transform="translate(244.258 750.34)" fill="#565556"/>
    <path id="Path_88" data-name="Path 88" d="M2.3,3.173A9.285,9.285,0,1,0,15.4,2.295,9.275,9.275,0,0,0,2.3,3.173Z" transform="translate(171.766 683.053)" fill="#565556"/>
    <path id="Path_89" data-name="Path 89" d="M2.625,3.626a10.612,10.612,0,1,0,14.981-1A10.6,10.6,0,0,0,2.625,3.626Z" transform="translate(99.272 615.753)" fill="#565556"/>
    <path id="Path_90" data-name="Path 90" d="M2.953,4.077A11.939,11.939,0,1,0,19.8,2.951,11.925,11.925,0,0,0,2.953,4.077Z" transform="translate(26.779 548.438)" fill="#565556"/>
    <path id="Path_91" data-name="Path 91" d="M.656.906A2.652,2.652,0,1,0,4.4.657,2.647,2.647,0,0,0,.656.906Z" transform="translate(533.372 936.455)" fill="#565556"/>
    <path id="Path_92" data-name="Path 92" d="M.984,1.358A3.98,3.98,0,1,0,6.6.984,3.977,3.977,0,0,0,.984,1.358Z" transform="translate(460.879 869.216)" fill="#565556"/>
    <path id="Path_93" data-name="Path 93" d="M1.312,1.812a5.306,5.306,0,1,0,7.49-.5A5.3,5.3,0,0,0,1.312,1.812Z" transform="translate(388.386 801.963)" fill="#565556"/>
    <path id="Path_94" data-name="Path 94" d="M1.641,2.264A6.632,6.632,0,1,0,11,1.639,6.627,6.627,0,0,0,1.641,2.264Z" transform="translate(315.892 734.697)" fill="#565556"/>
    <path id="Path_95" data-name="Path 95" d="M1.969,2.718A7.959,7.959,0,1,0,13.2,1.966,7.95,7.95,0,0,0,1.969,2.718Z" transform="translate(243.399 667.416)" fill="#565556"/>
    <path id="Path_96" data-name="Path 96" d="M2.3,3.171A9.285,9.285,0,1,0,15.4,2.295,9.277,9.277,0,0,0,2.3,3.171Z" transform="translate(170.905 600.121)" fill="#565556"/>
    <ellipse id="Ellipse_2" data-name="Ellipse 2" cx="10.615" cy="10.607" rx="10.615" ry="10.607" transform="translate(119.591 554.076) rotate(-179.714)" fill="#565556"/>
    <ellipse id="Ellipse_3" data-name="Ellipse 3" cx="11.943" cy="11.933" rx="11.943" ry="11.933" transform="matrix(-1, -0.003, 0.003, -1, 49.763, 489.392)" fill="#565556"/>
    <path id="Path_97" data-name="Path 97" d="M.985,1.358A3.98,3.98,0,1,0,6.6.984,3.978,3.978,0,0,0,.985,1.358Z" transform="translate(538.552 859.076)" fill="#565556"/>
    <path id="Path_98" data-name="Path 98" d="M1.314,1.81a5.306,5.306,0,1,0,7.488-.5A5.3,5.3,0,0,0,1.314,1.81Z" transform="translate(466.058 791.823)" fill="#565556"/>
    <path id="Path_99" data-name="Path 99" d="M1.641,2.264A6.633,6.633,0,1,0,11,1.639,6.627,6.627,0,0,0,1.641,2.264Z" transform="translate(393.565 724.555)" fill="#565556"/>
    <path id="Path_100" data-name="Path 100" d="M1.969,2.717A7.959,7.959,0,1,0,13.2,1.967,7.952,7.952,0,0,0,1.969,2.717Z" transform="translate(321.072 657.273)" fill="#565556"/>
    <path id="Path_101" data-name="Path 101" d="M2.3,3.171A9.285,9.285,0,1,0,15.4,2.295,9.275,9.275,0,0,0,2.3,3.171Z" transform="translate(248.578 589.976)" fill="#565556"/>
    <path id="Path_102" data-name="Path 102" d="M2.626,3.624a10.611,10.611,0,1,0,14.978-1A10.6,10.6,0,0,0,2.626,3.624Z" transform="translate(176.086 522.665)" fill="#565556"/>
    <path id="Path_103" data-name="Path 103" d="M2.954,4.077A11.938,11.938,0,1,0,19.8,2.951,11.923,11.923,0,0,0,2.954,4.077Z" transform="translate(103.592 455.341)" fill="#565556"/>
    <path id="Path_104" data-name="Path 104" d="M3.281,4.53A13.264,13.264,0,1,0,22.006,3.278,13.251,13.251,0,0,0,3.281,4.53Z" transform="translate(31.099 388.001)" fill="#565556"/>
    <path id="Path_105" data-name="Path 105" d="M.657.906A2.652,2.652,0,1,0,4.4.657,2.649,2.649,0,0,0,.657.906Z" transform="translate(610.184 843.427)" fill="#565556"/>
    <path id="Path_106" data-name="Path 106" d="M.985,1.358A3.98,3.98,0,1,0,6.6.984,3.977,3.977,0,0,0,.985,1.358Z" transform="translate(537.691 776.179)" fill="#565556"/>
    <path id="Path_107" data-name="Path 107" d="M1.314,1.812a5.305,5.305,0,1,0,7.487-.5A5.3,5.3,0,0,0,1.314,1.812Z" transform="translate(465.199 708.916)" fill="#565556"/>
    <path id="Path_108" data-name="Path 108" d="M1.64,2.264A6.633,6.633,0,1,0,11,1.639,6.626,6.626,0,0,0,1.64,2.264Z" transform="translate(392.705 641.641)" fill="#565556"/>
    <path id="Path_109" data-name="Path 109" d="M1.969,2.717A7.959,7.959,0,1,0,13.2,1.968,7.951,7.951,0,0,0,1.969,2.717Z" transform="translate(320.212 574.349)" fill="#565556"/>
    <path id="Path_110" data-name="Path 110" d="M2.3,3.171A9.285,9.285,0,1,0,15.4,2.295,9.274,9.274,0,0,0,2.3,3.171Z" transform="translate(247.718 507.043)" fill="#565556"/>
    <path id="Path_111" data-name="Path 111" d="M2.624,3.624a10.611,10.611,0,1,0,14.978-1A10.6,10.6,0,0,0,2.624,3.624Z" transform="translate(175.226 439.724)" fill="#565556"/>
    <ellipse id="Ellipse_4" data-name="Ellipse 4" cx="11.943" cy="11.933" rx="11.943" ry="11.933" transform="translate(102.732 372.389)" fill="#565556"/>
    <path id="Path_112" data-name="Path 112" d="M3.281,4.531A13.264,13.264,0,1,0,22.006,3.279,13.252,13.252,0,0,0,3.281,4.531Z" transform="translate(30.239 305.041)" fill="#565556"/>
    <path id="Path_113" data-name="Path 113" d="M.984,1.359A3.98,3.98,0,1,0,6.6.984,3.977,3.977,0,0,0,.984,1.359Z" transform="translate(615.364 766.039)" fill="#565556"/>
    <path id="Path_114" data-name="Path 114" d="M1.313,1.812a5.306,5.306,0,1,0,7.49-.5A5.3,5.3,0,0,0,1.313,1.812Z" transform="translate(542.872 698.776)" fill="#565556"/>
    <path id="Path_115" data-name="Path 115" d="M1.64,2.265A6.632,6.632,0,1,0,11,1.64,6.624,6.624,0,0,0,1.64,2.265Z" transform="translate(470.378 631.498)" fill="#565556"/>
    <path id="Path_116" data-name="Path 116" d="M1.969,2.718A7.959,7.959,0,1,0,13.2,1.967,7.948,7.948,0,0,0,1.969,2.718Z" transform="translate(397.884 564.206)" fill="#565556"/>
    <path id="Path_117" data-name="Path 117" d="M2.3,3.172A9.285,9.285,0,1,0,15.4,2.3,9.274,9.274,0,0,0,2.3,3.172Z" transform="translate(325.391 496.9)" fill="#565556"/>
    <path id="Path_118" data-name="Path 118" d="M2.625,3.624a10.611,10.611,0,1,0,14.979-1A10.6,10.6,0,0,0,2.625,3.624Z" transform="translate(252.898 429.579)" fill="#565556"/>
    <path id="Path_119" data-name="Path 119" d="M2.954,4.078A11.938,11.938,0,1,0,19.8,2.951,11.924,11.924,0,0,0,2.954,4.078Z" transform="translate(180.406 362.243)" fill="#565556"/>
    <path id="Path_120" data-name="Path 120" d="M3.282,4.53A13.264,13.264,0,1,0,22.005,3.278,13.25,13.25,0,0,0,3.282,4.53Z" transform="translate(107.912 294.893)" fill="#565556"/>
    <path id="Path_121" data-name="Path 121" d="M3.608,4.983a14.592,14.592,0,1,0,20.6-1.377A14.576,14.576,0,0,0,3.608,4.983Z" transform="translate(35.42 214.424)" fill="#565556"/>
    <path id="Path_122" data-name="Path 122" d="M.656.906A2.653,2.653,0,1,0,4.4.657,2.652,2.652,0,0,0,.656.906Z" transform="translate(686.998 750.4)" fill="#565556"/>
    <path id="Path_123" data-name="Path 123" d="M.984,1.36A3.98,3.98,0,1,0,6.6.984,3.977,3.977,0,0,0,.984,1.36Z" transform="translate(614.505 683.142)" fill="#565556"/>
    <path id="Path_124" data-name="Path 124" d="M1.311,1.813a5.306,5.306,0,1,0,7.49-.5A5.3,5.3,0,0,0,1.311,1.813Z" transform="translate(542.013 615.869)" fill="#565556"/>
    <path id="Path_125" data-name="Path 125" d="M1.64,2.266A6.632,6.632,0,1,0,11,1.639,6.625,6.625,0,0,0,1.64,2.266Z" transform="translate(469.519 548.583)" fill="#565556"/>
    <path id="Path_126" data-name="Path 126" d="M1.968,2.718A7.959,7.959,0,1,0,13.2,1.967,7.948,7.948,0,0,0,1.968,2.718Z" transform="translate(397.024 481.283)" fill="#565556"/>
    <path id="Path_127" data-name="Path 127" d="M2.3,3.172A9.285,9.285,0,1,0,15.4,2.295,9.274,9.274,0,0,0,2.3,3.172Z" transform="translate(324.531 413.966)" fill="#565556"/>
    <path id="Path_128" data-name="Path 128" d="M2.625,3.626a10.611,10.611,0,1,0,14.979-1A10.6,10.6,0,0,0,2.625,3.626Z" transform="translate(252.039 346.637)" fill="#565556"/>
    <path id="Path_129" data-name="Path 129" d="M2.953,4.078A11.938,11.938,0,1,0,19.8,2.951,11.923,11.923,0,0,0,2.953,4.078Z" transform="translate(179.546 279.293)" fill="#565556"/>
    <path id="Path_130" data-name="Path 130" d="M3.281,4.53A13.264,13.264,0,1,0,22,3.278,13.251,13.251,0,0,0,3.281,4.53Z" transform="translate(107.052 199.749)" fill="#565556"/>
    <path id="Path_131" data-name="Path 131" d="M3.608,4.983a14.592,14.592,0,1,0,20.6-1.376A14.577,14.577,0,0,0,3.608,4.983Z" transform="translate(34.559 136.234)" fill="#565556"/>
    <path id="Path_132" data-name="Path 132" d="M.986,1.359A3.98,3.98,0,1,0,6.6.983,3.973,3.973,0,0,0,.986,1.359Z" transform="translate(692.177 673.002)" fill="#565556"/>
    <path id="Path_133" data-name="Path 133" d="M1.314,1.812a5.306,5.306,0,1,0,7.488-.5A5.3,5.3,0,0,0,1.314,1.812Z" transform="translate(619.684 605.729)" fill="#565556"/>
    <path id="Path_134" data-name="Path 134" d="M1.64,2.265A6.632,6.632,0,1,0,11,1.64,6.629,6.629,0,0,0,1.64,2.265Z" transform="translate(547.192 538.441)" fill="#565556"/>
    <path id="Path_135" data-name="Path 135" d="M1.968,2.718A7.959,7.959,0,1,0,13.2,1.967,7.954,7.954,0,0,0,1.968,2.718Z" transform="translate(474.699 471.139)" fill="#565556"/>
    <path id="Path_136" data-name="Path 136" d="M2.3,3.173A9.285,9.285,0,1,0,15.4,2.295,9.273,9.273,0,0,0,2.3,3.173Z" transform="translate(402.205 403.821)" fill="#565556"/>
    <path id="Path_137" data-name="Path 137" d="M2.625,3.625a10.611,10.611,0,1,0,14.978-1A10.6,10.6,0,0,0,2.625,3.625Z" transform="translate(329.712 336.492)" fill="#565556"/>
    <path id="Path_138" data-name="Path 138" d="M2.954,4.078A11.938,11.938,0,1,0,19.806,2.951,11.924,11.924,0,0,0,2.954,4.078Z" transform="translate(257.218 253.7)" fill="#565556"/>
    <path id="Path_139" data-name="Path 139" d="M3.281,4.529a13.265,13.265,0,1,0,18.725-1.25A13.251,13.251,0,0,0,3.281,4.529Z" transform="translate(184.724 190.185)" fill="#565556"/>
    <path id="Path_140" data-name="Path 140" d="M3.61,4.982a14.591,14.591,0,1,0,20.6-1.375A14.573,14.573,0,0,0,3.61,4.982Z" transform="translate(112.231 126.67)" fill="#565556"/>
    <path id="Path_141" data-name="Path 141" d="M3.937,5.435A15.918,15.918,0,1,0,26.4,3.934,15.9,15.9,0,0,0,3.937,5.435Z" transform="translate(39.74 63.155)" fill="#565556"/>
    <path id="Path_142" data-name="Path 142" d="M.656.906A2.653,2.653,0,1,0,4.4.657,2.652,2.652,0,0,0,.656.906Z" transform="translate(763.812 657.373)" fill="#565556"/>
    <path id="Path_143" data-name="Path 143" d="M.985,1.359A3.98,3.98,0,1,0,6.6.983,3.975,3.975,0,0,0,.985,1.359Z" transform="translate(691.318 590.105)" fill="#565556"/>
    <path id="Path_144" data-name="Path 144" d="M1.314,1.81a5.306,5.306,0,1,0,7.488-.5A5.3,5.3,0,0,0,1.314,1.81Z" transform="translate(618.824 522.823)" fill="#565556"/>
    <path id="Path_145" data-name="Path 145" d="M1.641,2.263A6.633,6.633,0,1,0,11,1.64,6.627,6.627,0,0,0,1.641,2.263Z" transform="translate(546.332 455.527)" fill="#565556"/>
    <path id="Path_146" data-name="Path 146" d="M1.969,2.717A7.959,7.959,0,1,0,13.2,1.967,7.951,7.951,0,0,0,1.969,2.717Z" transform="translate(473.839 388.215)" fill="#565556"/>
    <path id="Path_147" data-name="Path 147" d="M2.3,3.171A9.286,9.286,0,1,0,15.4,2.3,9.277,9.277,0,0,0,2.3,3.171Z" transform="translate(401.345 320.889)" fill="#565556"/>
    <path id="Path_148" data-name="Path 148" d="M2.625,3.623a10.612,10.612,0,1,0,14.979-1A10.6,10.6,0,0,0,2.625,3.623Z" transform="translate(328.851 239.025)" fill="#565556"/>
    <path id="Path_149" data-name="Path 149" d="M2.953,4.077A11.938,11.938,0,1,0,19.8,2.951,11.926,11.926,0,0,0,2.953,4.077Z" transform="translate(256.36 175.51)" fill="#565556"/>
    <path id="Path_150" data-name="Path 150" d="M3.281,4.529A13.264,13.264,0,1,0,22,3.279,13.252,13.252,0,0,0,3.281,4.529Z" transform="translate(183.866 111.995)" fill="#565556"/>
    <path id="Path_151" data-name="Path 151" d="M3.611,4.983a14.59,14.59,0,1,0,20.6-1.376A14.572,14.572,0,0,0,3.611,4.983Z" transform="translate(111.371 48.48)" fill="#565556"/>
    <path id="Path_152" data-name="Path 152" d="M.984,1.358A3.98,3.98,0,1,0,6.6.983,3.977,3.977,0,0,0,.984,1.358Z" transform="translate(768.991 579.965)" fill="#565556"/>
    <path id="Path_153" data-name="Path 153" d="M1.312,1.812a5.306,5.306,0,1,0,7.49-.5A5.3,5.3,0,0,0,1.312,1.812Z" transform="translate(696.498 512.682)" fill="#565556"/>
    <path id="Path_154" data-name="Path 154" d="M1.641,2.265A6.632,6.632,0,1,0,11,1.64,6.628,6.628,0,0,0,1.641,2.265Z" transform="translate(624.004 445.384)" fill="#565556"/>
    <path id="Path_155" data-name="Path 155" d="M1.97,2.718A7.958,7.958,0,1,0,13.2,1.968,7.95,7.95,0,0,0,1.97,2.718Z" transform="translate(551.511 378.072)" fill="#565556"/>
    <path id="Path_156" data-name="Path 156" d="M2.3,3.171A9.285,9.285,0,1,0,15.4,2.3,9.274,9.274,0,0,0,2.3,3.171Z" transform="translate(479.018 310.745)" fill="#565556"/>
    <path id="Path_157" data-name="Path 157" d="M2.625,3.624a10.612,10.612,0,1,0,14.979-1A10.6,10.6,0,0,0,2.625,3.624Z" transform="translate(406.525 229.461)" fill="#565556"/>
    <ellipse id="Ellipse_5" data-name="Ellipse 5" cx="11.943" cy="11.933" rx="11.943" ry="11.933" transform="translate(334.032 165.946)" fill="#565556"/>
    <path id="Path_158" data-name="Path 158" d="M3.281,4.531A13.264,13.264,0,1,0,22.006,3.279,13.25,13.25,0,0,0,3.281,4.531Z" transform="translate(261.538 102.43)" fill="#565556"/>
    <path id="Path_159" data-name="Path 159" d="M3.61,4.982a14.591,14.591,0,1,0,20.6-1.375A14.576,14.576,0,0,0,3.61,4.982Z" transform="translate(189.045 38.915)" fill="#565556"/>
    <path id="Path_160" data-name="Path 160" d="M.656.906A2.653,2.653,0,1,0,4.4.656,2.651,2.651,0,0,0,.656.906Z" transform="translate(840.625 564.346)" fill="#565556"/>
    <path id="Path_161" data-name="Path 161" d="M.983,1.359A3.98,3.98,0,1,0,6.6.984,3.977,3.977,0,0,0,.983,1.359Z" transform="translate(768.132 497.068)" fill="#565556"/>
    <path id="Path_162" data-name="Path 162" d="M1.312,1.812a5.306,5.306,0,1,0,7.49-.5A5.3,5.3,0,0,0,1.312,1.812Z" transform="translate(695.637 429.776)" fill="#565556"/>
    <path id="Path_163" data-name="Path 163" d="M1.641,2.265A6.632,6.632,0,1,0,11,1.64,6.625,6.625,0,0,0,1.641,2.265Z" transform="translate(623.145 362.47)" fill="#565556"/>
    <path id="Path_164" data-name="Path 164" d="M1.969,2.718A7.959,7.959,0,1,0,13.2,1.967,7.947,7.947,0,0,0,1.969,2.718Z" transform="translate(550.651 295.148)" fill="#565556"/>
    <path id="Path_165" data-name="Path 165" d="M2.3,3.172A9.286,9.286,0,1,0,15.4,2.295,9.275,9.275,0,0,0,2.3,3.172Z" transform="translate(478.158 214.785)" fill="#565556"/>
    <path id="Path_166" data-name="Path 166" d="M2.624,3.625a10.612,10.612,0,1,0,14.979-1A10.6,10.6,0,0,0,2.624,3.625Z" transform="translate(405.665 151.271)" fill="#565556"/>
    <path id="Path_167" data-name="Path 167" d="M2.953,4.078A11.938,11.938,0,1,0,19.8,2.951,11.926,11.926,0,0,0,2.953,4.078Z" transform="translate(333.171 87.755)" fill="#565556"/>
    <path id="Path_168" data-name="Path 168" d="M3.281,4.531A13.264,13.264,0,1,0,22.006,3.279,13.251,13.251,0,0,0,3.281,4.531Z" transform="translate(260.679 24.24)" fill="#565556"/>
    <path id="Path_169" data-name="Path 169" d="M.984,1.359A3.98,3.98,0,1,0,6.6.983,3.976,3.976,0,0,0,.984,1.359Z" transform="translate(845.804 486.928)" fill="#565556"/>
    <path id="Path_170" data-name="Path 170" d="M1.313,1.812a5.306,5.306,0,1,0,7.49-.5A5.3,5.3,0,0,0,1.313,1.812Z" transform="translate(773.311 419.635)" fill="#565556"/>
    <path id="Path_171" data-name="Path 171" d="M1.641,2.265A6.632,6.632,0,1,0,11,1.64,6.627,6.627,0,0,0,1.641,2.265Z" transform="translate(700.818 352.327)" fill="#565556"/>
    <path id="Path_172" data-name="Path 172" d="M1.969,2.718A7.959,7.959,0,1,0,13.2,1.968,7.95,7.95,0,0,0,1.969,2.718Z" transform="translate(628.324 285.005)" fill="#565556"/>
    <path id="Path_173" data-name="Path 173" d="M2.3,3.171A9.286,9.286,0,1,0,15.4,2.3,9.278,9.278,0,0,0,2.3,3.171Z" transform="translate(555.831 205.221)" fill="#565556"/>
    <path id="Path_174" data-name="Path 174" d="M2.626,3.625a10.611,10.611,0,1,0,14.979-1A10.6,10.6,0,0,0,2.626,3.625Z" transform="translate(483.337 141.706)" fill="#565556"/>
    <path id="Path_175" data-name="Path 175" d="M2.954,4.077A11.938,11.938,0,1,0,19.8,2.951,11.925,11.925,0,0,0,2.954,4.077Z" transform="translate(410.845 78.192)" fill="#565556"/>
    <path id="Path_176" data-name="Path 176" d="M3.281,4.53A13.264,13.264,0,1,0,22,3.278,13.252,13.252,0,0,0,3.281,4.53Z" transform="translate(338.352 14.676)" fill="#565556"/>
    <path id="Path_177" data-name="Path 177" d="M.656.906A2.653,2.653,0,1,0,4.4.656,2.651,2.651,0,0,0,.656.906Z" transform="translate(917.438 471.319)" fill="#565556"/>
    <path id="Path_178" data-name="Path 178" d="M.984,1.359A3.98,3.98,0,1,0,6.6.983,3.976,3.976,0,0,0,.984,1.359Z" transform="translate(844.944 404.032)" fill="#565556"/>
    <ellipse id="Ellipse_6" data-name="Ellipse 6" cx="5.303" cy="5.303" rx="5.303" ry="5.303" transform="translate(772.497 347.375) rotate(-90.446)" fill="#565556"/>
    <path id="Path_179" data-name="Path 179" d="M1.64,2.265A6.632,6.632,0,1,0,11,1.64,6.628,6.628,0,0,0,1.64,2.265Z" transform="translate(699.958 254.062)" fill="#565556"/>
    <path id="Path_180" data-name="Path 180" d="M1.97,2.718A7.959,7.959,0,1,0,13.2,1.967,7.95,7.95,0,0,0,1.97,2.718Z" transform="translate(627.464 190.546)" fill="#565556"/>
    <path id="Path_181" data-name="Path 181" d="M2.3,3.172A9.286,9.286,0,1,0,15.4,2.295,9.274,9.274,0,0,0,2.3,3.172Z" transform="translate(554.97 127.03)" fill="#565556"/>
    <path id="Path_182" data-name="Path 182" d="M2.625,3.624a10.612,10.612,0,1,0,14.978-1A10.6,10.6,0,0,0,2.625,3.624Z" transform="translate(482.479 63.516)" fill="#565556"/>
    <path id="Path_183" data-name="Path 183" d="M2.953,4.078A11.938,11.938,0,1,0,19.8,2.951,11.926,11.926,0,0,0,2.953,4.078Z" transform="translate(409.986 0)" fill="#565556"/>
    <path id="Path_184" data-name="Path 184" d="M.985,1.358A3.98,3.98,0,1,0,6.6.984,3.977,3.977,0,0,0,.985,1.358Z" transform="translate(922.617 393.892)" fill="#565556"/>
    <path id="Path_185" data-name="Path 185" d="M1.314,1.81a5.306,5.306,0,1,0,7.488-.5A5.3,5.3,0,0,0,1.314,1.81Z" transform="translate(850.124 326.589)" fill="#565556"/>
    <path id="Path_186" data-name="Path 186" d="M1.642,2.264A6.632,6.632,0,1,0,11,1.639,6.625,6.625,0,0,0,1.642,2.264Z" transform="translate(777.631 244.498)" fill="#565556"/>
    <path id="Path_187" data-name="Path 187" d="M1.968,2.717A7.959,7.959,0,1,0,13.2,1.967,7.95,7.95,0,0,0,1.968,2.717Z" transform="translate(705.137 180.983)" fill="#565556"/>
    <path id="Path_188" data-name="Path 188" d="M2.3,3.172A9.285,9.285,0,1,0,15.4,2.3,9.277,9.277,0,0,0,2.3,3.172Z" transform="translate(632.644 117.466)" fill="#565556"/>
    <path id="Path_189" data-name="Path 189" d="M2.626,3.624a10.612,10.612,0,1,0,14.979-1A10.6,10.6,0,0,0,2.626,3.624Z" transform="translate(560.151 53.951)" fill="#565556"/>
    <path id="Path_190" data-name="Path 190" d="M.655.905A2.653,2.653,0,1,0,4.4.656,2.654,2.654,0,0,0,.655.905Z" transform="translate(994.251 378.293)" fill="#565556"/>
    <path id="Path_191" data-name="Path 191" d="M.984,1.358A3.98,3.98,0,1,0,6.6.984,3.977,3.977,0,0,0,.984,1.358Z" transform="translate(921.758 310.995)" fill="#565556"/>
    <path id="Path_192" data-name="Path 192" d="M1.313,1.812a5.306,5.306,0,1,0,7.49-.5A5.3,5.3,0,0,0,1.313,1.812Z" transform="translate(849.265 229.822)" fill="#565556"/>
    <path id="Path_193" data-name="Path 193" d="M1.642,2.264A6.633,6.633,0,1,0,11,1.639,6.626,6.626,0,0,0,1.642,2.264Z" transform="translate(776.771 166.307)" fill="#565556"/>
    <path id="Path_194" data-name="Path 194" d="M1.969,2.718A7.959,7.959,0,1,0,13.2,1.968,7.95,7.95,0,0,0,1.969,2.718Z" transform="translate(704.278 102.792)" fill="#565556"/>
    <path id="Path_195" data-name="Path 195" d="M2.3,3.172A9.285,9.285,0,1,0,15.4,2.3,9.273,9.273,0,0,0,2.3,3.172Z" transform="translate(631.784 39.276)" fill="#565556"/>
    <path id="Path_196" data-name="Path 196" d="M.984,1.359A3.98,3.98,0,1,0,6.6.984,3.974,3.974,0,0,0,.984,1.359Z" transform="translate(999.43 300.855)" fill="#565556"/>
    <path id="Path_197" data-name="Path 197" d="M1.313,1.813a5.306,5.306,0,1,0,7.489-.5A5.3,5.3,0,0,0,1.313,1.813Z" transform="translate(926.937 220.257)" fill="#565556"/>
    <path id="Path_198" data-name="Path 198" d="M1.64,2.265A6.632,6.632,0,1,0,11,1.638,6.625,6.625,0,0,0,1.64,2.265Z" transform="translate(854.444 156.743)" fill="#565556"/>
    <path id="Path_199" data-name="Path 199" d="M1.969,2.718A7.958,7.958,0,1,0,13.2,1.967,7.949,7.949,0,0,0,1.969,2.718Z" transform="translate(781.951 93.228)" fill="#565556"/>
    <path id="Path_200" data-name="Path 200" d="M2.3,3.172A9.286,9.286,0,1,0,15.4,2.295,9.274,9.274,0,0,0,2.3,3.172Z" transform="translate(709.457 29.712)" fill="#565556"/>
    <path id="Path_201" data-name="Path 201" d="M.657.906A2.652,2.652,0,1,0,4.4.657,2.65,2.65,0,0,0,.657.906Z" transform="translate(1071.064 269.098)" fill="#565556"/>
    <path id="Path_202" data-name="Path 202" d="M.985,1.358A3.98,3.98,0,1,0,6.6.984,3.974,3.974,0,0,0,.985,1.358Z" transform="translate(998.571 205.583)" fill="#565556"/>
    <ellipse id="Ellipse_7" data-name="Ellipse 7" cx="5.303" cy="5.303" rx="5.303" ry="5.303" transform="translate(926.124 152.715) rotate(-90.446)" fill="#565556"/>
    <path id="Path_203" data-name="Path 203" d="M1.639,2.264A6.632,6.632,0,1,0,11,1.639,6.629,6.629,0,0,0,1.639,2.264Z" transform="translate(853.585 78.552)" fill="#565556"/>
    <path id="Path_204" data-name="Path 204" d="M1.969,2.717A7.959,7.959,0,1,0,13.2,1.967,7.951,7.951,0,0,0,1.969,2.717Z" transform="translate(781.091 15.038)" fill="#565556"/>
    <path id="Path_205" data-name="Path 205" d="M.985,1.359A3.98,3.98,0,1,0,6.6.983,3.975,3.975,0,0,0,.985,1.359Z" transform="translate(1076.243 196.019)" fill="#565556"/>
    <path id="Path_206" data-name="Path 206" d="M1.313,1.812a5.306,5.306,0,1,0,7.49-.5A5.3,5.3,0,0,0,1.313,1.812Z" transform="translate(1003.75 132.504)" fill="#565556"/>
    <path id="Path_207" data-name="Path 207" d="M1.641,2.265A6.632,6.632,0,1,0,11,1.639,6.625,6.625,0,0,0,1.641,2.265Z" transform="translate(931.257 68.988)" fill="#565556"/>
    <path id="Path_208" data-name="Path 208" d="M1.968,2.718A7.959,7.959,0,1,0,13.2,1.967,7.952,7.952,0,0,0,1.968,2.718Z" transform="translate(858.764 5.473)" fill="#565556"/>
    <path id="Path_209" data-name="Path 209" d="M.657.906A2.652,2.652,0,1,0,4.4.657,2.65,2.65,0,0,0,.657.906Z" transform="translate(1147.877 181.343)" fill="#565556"/>
    <path id="Path_210" data-name="Path 210" d="M.984,1.358A3.981,3.981,0,1,0,6.6.984,3.978,3.978,0,0,0,.984,1.358Z" transform="translate(1075.384 117.828)" fill="#565556"/>
    <path id="Path_211" data-name="Path 211" d="M1.313,1.812a5.306,5.306,0,1,0,7.489-.5A5.3,5.3,0,0,0,1.313,1.812Z" transform="translate(1002.891 54.312)" fill="#565556"/>
    <path id="Path_212" data-name="Path 212" d="M.985,1.359A3.98,3.98,0,1,0,6.6.983,3.974,3.974,0,0,0,.985,1.359Z" transform="translate(1153.056 108.264)" fill="#565556"/>
    <path id="Path_213" data-name="Path 213" d="M1.313,1.812a5.306,5.306,0,1,0,7.488-.5A5.3,5.3,0,0,0,1.313,1.812Z" transform="translate(1080.564 44.749)" fill="#565556"/>
  </g>
</svg>
