<svg xmlns="http://www.w3.org/2000/svg" width="28.594" height="28.593" viewBox="0 0 28.594 28.593">
  <path id="send" d="M28.146.176a1,1,0,0,1,.43,1.021L24.492,25.705a1,1,0,0,1-.511.718.978.978,0,0,1-.495.128,1.077,1.077,0,0,1-.383-.079l-7.228-2.952-3.862,4.707a.94.94,0,0,1-.782.367.867.867,0,0,1-.351-.064,1.021,1.021,0,0,1-.67-.958V22L24,5.105,6.941,19.865l-6.3-2.585A1.01,1.01,0,0,1,.51,15.462L27.061.144A.974.974,0,0,1,27.571,0a.989.989,0,0,1,.574.176Z" transform="translate(0.002)" fill="#fff"/>
</svg>
